<svg xmlns="http://www.w3.org/2000/svg" width="807.453" height="499.98" viewBox="0 0 807.453 499.98">
  <g id="Group_37" data-name="Group 37" transform="translate(0 -0.004)">
    <path id="Path_75" data-name="Path 75" d="M496.874,505.526a6.942,6.942,0,0,1-2.851.671l-91.607,2.514a14.38,14.38,0,0,1-.625-28.752l91.607-2.514a7.007,7.007,0,0,1,7.151,6.846l.321,14.756a7.017,7.017,0,0,1-4,6.48Z" transform="translate(-196.274 -200.008)" fill="#4f46e5"/>
    <path id="Path_76" data-name="Path 76" d="M379.332,698.6h-14.76a7.008,7.008,0,0,1-7-7V568.584a7.008,7.008,0,0,1,7-7h14.76a7.008,7.008,0,0,1,7,7V691.6a7.008,7.008,0,0,1-7,7Z" transform="translate(-196.274 -200.008)" fill="#4f46e5"/>
    <path id="Path_77" data-name="Path 77" d="M418.524,698.6H403.765a7.008,7.008,0,0,1-7-7V568.584a7.008,7.008,0,0,1,7-7h14.76a7.008,7.008,0,0,1,7,7V691.6a7.008,7.008,0,0,1-7,7Z" transform="translate(-196.274 -200.008)" fill="#4f46e5"/>
    <circle id="Ellipse_10" data-name="Ellipse 10" cx="51" cy="51" r="51" transform="translate(145.716 131.697)" fill="#4f46e5"/>
    <path id="Path_78" data-name="Path 78" d="M410.3,605.205h-36.69a43.277,43.277,0,0,1-37.56-65.057l51.309-88.87a6.5,6.5,0,0,1,11.258,0l50.276,87.081A44.564,44.564,0,0,1,410.3,605.205Z" transform="translate(-196.274 -200.008)" fill="#2f2e41"/>
    <path id="Path_79" data-name="Path 79" d="M405.027,404.114c3.306-.092,7.42-.207,10.59-2.522a8.133,8.133,0,0,0,3.2-6.073,5.471,5.471,0,0,0-1.86-4.493c-1.656-1.4-4.073-1.727-6.678-.961l2.7-19.726L411,370.068l-3.173,23.19,1.655-.759c1.918-.88,4.552-1.328,6.188.055a3.515,3.515,0,0,1,1.153,2.9,6.147,6.147,0,0,1-2.381,4.528c-2.467,1.8-5.746,2.034-9.466,2.138Z" transform="translate(-196.274 -200.008)" fill="#2f2e41"/>
    <rect id="Rectangle_17" data-name="Rectangle 17" width="10.772" height="2" transform="translate(226.503 172.032)" fill="#2f2e41"/>
    <rect id="Rectangle_18" data-name="Rectangle 18" width="10.772" height="2" transform="translate(192.503 172.032)" fill="#2f2e41"/>
    <path id="Path_80" data-name="Path 80" d="M380.994,593.8a6.942,6.942,0,0,1-.671-2.851l-2.514-91.607a14.38,14.38,0,0,1,28.752-.625l2.514,91.607a7.007,7.007,0,0,1-6.846,7.151l-14.756.321a7.016,7.016,0,0,1-6.48-4Z" transform="translate(-196.274 -200.008)" fill="#4f46e5"/>
    <path id="Path_81" data-name="Path 81" d="M388.257,345.005c6.2,8.1,16.033,13.539,26.429,12.252,9.9-1.226,18.068-8.126,20.117-18.005a29.67,29.67,0,0,0-7.8-26.19c-7.008-7.37-17.036-11.335-26.963-12.695-18.8-2.575-38.117,4.049-52.335,16.4a64.111,64.111,0,0,0-16.692,22.375,62.724,62.724,0,0,0-5.175,27.078c.546,18.375,8.595,36.715,22.483,48.9a63.366,63.366,0,0,0,5.408,4.236c1.584,1.111,3.085-1.489,1.514-2.59-14.222-9.977-23.294-26.211-25.783-43.268a59.924,59.924,0,0,1,14.053-48.34C355,312.1,371.838,303.614,389.278,302.854c17.549-.765,39.479,7.069,42.763,26.6,1.472,8.756-1.8,17.959-9.825,22.343-8.591,4.693-19.124,2.762-26.507-3.3a30.447,30.447,0,0,1-4.863-5.011c-1.157-1.513-3.764-.02-2.59,1.514Z" transform="translate(-196.274 -200.008)" fill="#2f2e41"/>
    <rect id="ab2e16f2-9798-47da-b25d-769524f3c86f" width="437.195" height="207.457" transform="translate(275.352 74.346) rotate(-8.22)" fill="#f1f1f1"/>
    <rect id="bf81c03f-68cf-4889-8697-1102f95f97bb" width="412.192" height="173.087" transform="translate(290.268 90.166) rotate(-8.22)" fill="#fff"/>
    <rect id="f065dccc-d150-492a-a09f-a7f3f89523f0" width="437.195" height="18.573" transform="translate(273.453 62.51) rotate(-8.22)" fill="#e5e5e5"/>
    <circle id="bdbbf39c-df25-4682-8b85-5a6af4a1bd14" cx="3.443" cy="3.443" r="3.443" transform="translate(285.233 67.901)" fill="#fff"/>
    <circle id="abcd4292-0b1f-4102-9b5e-e8bbd87baabc" cx="3.443" cy="3.443" r="3.443" transform="translate(298.164 66.033)" fill="#fff"/>
    <circle id="a3fb731e-8b3d-41ca-96f2-91600dc0b434" cx="3.443" cy="3.443" r="3.443" transform="translate(311.098 64.164)" fill="#fff"/>
    <rect id="ab2e16f2-9798-47da-b25d-769524f3c86f-2" data-name="ab2e16f2-9798-47da-b25d-769524f3c86f" width="437.195" height="207.457" transform="translate(370.258 100.183)" fill="#e6e6e6"/>
    <rect id="bf81c03f-68cf-4889-8697-1102f95f97bb-2" data-name="bf81c03f-68cf-4889-8697-1102f95f97bb" width="412.192" height="173.087" transform="translate(382.76 117.973)" fill="#fff"/>
    <rect id="f065dccc-d150-492a-a09f-a7f3f89523f0-2" data-name="f065dccc-d150-492a-a09f-a7f3f89523f0" width="437.195" height="18.573" transform="translate(370.072 88.197)" fill="#cbcbcb"/>
    <circle id="bdbbf39c-df25-4682-8b85-5a6af4a1bd14-2" data-name="bdbbf39c-df25-4682-8b85-5a6af4a1bd14" cx="3.443" cy="3.443" r="3.443" transform="translate(380.431 95.676)" fill="#fff"/>
    <circle id="abcd4292-0b1f-4102-9b5e-e8bbd87baabc-2" data-name="abcd4292-0b1f-4102-9b5e-e8bbd87baabc" cx="3.443" cy="3.443" r="3.443" transform="translate(393.497 95.676)" fill="#fff"/>
    <circle id="a3fb731e-8b3d-41ca-96f2-91600dc0b434-2" data-name="a3fb731e-8b3d-41ca-96f2-91600dc0b434" cx="3.443" cy="3.443" r="3.443" transform="translate(406.565 95.676)" fill="#fff"/>
    <rect id="Rectangle_19" data-name="Rectangle 19" width="58.052" height="4.363" transform="translate(620.277 144.289)" fill="#e6e6e6"/>
    <rect id="Rectangle_20" data-name="Rectangle 20" width="89.645" height="4.363" transform="translate(620.277 157.098)" fill="#e6e6e6"/>
    <rect id="Rectangle_21" data-name="Rectangle 21" width="73.059" height="4.363" transform="translate(621.209 169.297)" fill="#e6e6e6"/>
    <rect id="Rectangle_22" data-name="Rectangle 22" width="42.651" height="4.363" transform="translate(620.277 182.682)" fill="#e6e6e6"/>
    <rect id="Rectangle_23" data-name="Rectangle 23" width="64.371" height="4.363" transform="translate(620.277 195.757)" fill="#e6e6e6"/>
    <rect id="Rectangle_24" data-name="Rectangle 24" width="7.108" height="7.108" transform="translate(593.818 142.916)" fill="#e6e6e6"/>
    <rect id="Rectangle_25" data-name="Rectangle 25" width="7.108" height="7.108" transform="translate(593.818 155.725)" fill="#e6e6e6"/>
    <rect id="Rectangle_26" data-name="Rectangle 26" width="7.108" height="7.108" transform="translate(593.818 167.924)" fill="#e6e6e6"/>
    <rect id="Rectangle_27" data-name="Rectangle 27" width="7.108" height="7.108" transform="translate(593.818 181.31)" fill="#e6e6e6"/>
    <rect id="Rectangle_28" data-name="Rectangle 28" width="7.108" height="7.108" transform="translate(593.818 194.384)" fill="#e6e6e6"/>
    <rect id="Rectangle_29" data-name="Rectangle 29" width="58.052" height="4.363" transform="translate(620.277 208.913)" fill="#e6e6e6"/>
    <rect id="Rectangle_30" data-name="Rectangle 30" width="89.645" height="4.363" transform="translate(620.277 221.722)" fill="#e6e6e6"/>
    <rect id="Rectangle_31" data-name="Rectangle 31" width="73.059" height="4.363" transform="translate(621.209 233.921)" fill="#e6e6e6"/>
    <rect id="Rectangle_32" data-name="Rectangle 32" width="42.651" height="4.363" transform="translate(620.277 247.307)" fill="#e6e6e6"/>
    <rect id="Rectangle_33" data-name="Rectangle 33" width="64.371" height="4.363" transform="translate(620.277 260.381)" fill="#e6e6e6"/>
    <rect id="Rectangle_34" data-name="Rectangle 34" width="7.108" height="7.108" transform="translate(593.818 207.541)" fill="#e6e6e6"/>
    <rect id="Rectangle_35" data-name="Rectangle 35" width="7.108" height="7.108" transform="translate(593.818 220.35)" fill="#e6e6e6"/>
    <rect id="Rectangle_36" data-name="Rectangle 36" width="7.108" height="7.108" transform="translate(593.818 232.549)" fill="#e6e6e6"/>
    <rect id="Rectangle_37" data-name="Rectangle 37" width="7.108" height="7.108" transform="translate(593.818 245.934)" fill="#e6e6e6"/>
    <rect id="Rectangle_38" data-name="Rectangle 38" width="7.108" height="7.108" transform="translate(593.818 259.009)" fill="#e6e6e6"/>
    <rect id="Rectangle_39" data-name="Rectangle 39" width="58.052" height="4.363" transform="translate(436.63 243.139)" fill="#e6e6e6"/>
    <rect id="Rectangle_40" data-name="Rectangle 40" width="73.059" height="4.363" transform="translate(428.863 254.477)" fill="#e6e6e6"/>
    <path id="Path_82" data-name="Path 82" d="M699.661,388.106a37.919,37.919,0,0,1-55.878,33.382l-.007-.007a37.907,37.907,0,1,1,55.886-33.375Z" transform="translate(-196.274 -200.008)" fill="#e6e6e6"/>
    <circle id="Ellipse_11" data-name="Ellipse 11" cx="10.304" cy="10.304" r="10.304" transform="translate(455.372 165.649)" fill="#fff"/>
    <path id="Path_83" data-name="Path 83" d="M679.544,407.557a53.11,53.11,0,0,1-35.568-.138l-.007-.005,7.677-15.153h20.608Z" transform="translate(-196.274 -200.008)" fill="#fff"/>
    <path id="Path_84" data-name="Path 84" d="M547.864,482.193c-17.96,0-32.572-15.522-32.572-34.6s14.612-34.6,32.572-34.6,32.572,15.522,32.572,34.6S565.824,482.193,547.864,482.193Zm0-60.458c-13.14,0-23.829,11.6-23.829,25.858s10.69,25.858,23.829,25.858,23.829-11.6,23.829-25.858S561,421.735,547.864,421.735Z" transform="translate(-196.274 -200.008)" fill="#4f46e5"/>
    <path id="Path_85" data-name="Path 85" d="M578.708,542.492H517.019A20.541,20.541,0,0,1,496.5,521.974v-60.51a14.064,14.064,0,0,1,14.048-14.048h74.631a14.064,14.064,0,0,1,14.048,14.048v60.51A20.541,20.541,0,0,1,578.708,542.492Z" transform="translate(-196.274 -200.008)" fill="#3f3d56"/>
    <path id="Path_86" data-name="Path 86" d="M559.885,481.84a12.021,12.021,0,1,0-17.485,10.7v18.808h10.928V492.538a12.011,12.011,0,0,0,6.557-10.7Z" transform="translate(-196.274 -200.008)" fill="#fff"/>
    <path id="Path_87" data-name="Path 87" d="M578.274,699.992h-381a1,1,0,0,1,0-2h381a1,1,0,0,1,0,2Z" transform="translate(-196.274 -200.008)" fill="#3f3d56"/>
  </g>
</svg>
