<svg xmlns="http://www.w3.org/2000/svg" class="injected-svg gridItem__media" data-name="Layer 1" viewBox="0 0 782.04441 701.88002">
  <defs/>
  <path fill="#f2f2f2" d="M400.51003 1.53016l-25.44631 6.56209L61.55955 88.93871 36.1132 95.5008a48.17927 48.17927 0 00-34.583 58.61786l110.341 427.87741a48.17924 48.17924 0 0058.61776 34.58317l.06572-.01695 364.26536-93.93675.06572-.01695a48.17923 48.17923 0 0034.58309-58.6178l-110.341-427.87741a48.17928 48.17928 0 00-58.61782-34.58322z"/>
  <path fill="#fff" d="M403.97004 14.94533l-30.13945 7.77236-304.11884 78.42617-30.139 7.77223a34.30949 34.30949 0 00-24.6275 41.74308l110.341 427.87741a34.30946 34.30946 0 0041.7431 24.62736l.06572-.01695 364.26536-93.93674.06619-.01707a34.30935 34.30935 0 0024.627-41.7429l-110.341-427.87741a34.30938 34.30938 0 00-41.74258-24.62754z"/>
  <path fill="#f2f2f2" d="M381.2122 153.50328l-184.273 47.52032a8.014112 8.014112 0 01-4.00241-15.52046l184.273-47.52033a8.01412 8.01412 0 014.00241 15.52047zM419.9772 171.43907l-216.284 55.77531a8.014112 8.014112 0 11-4.00241-15.52046l216.284-55.77531a8.01411325 8.01411325 0 014.00242 15.52046zM411.48045 270.87677l-184.273 47.52032a8.01411325 8.01411325 0 11-4.00242-15.52046l184.273-47.52032a8.014112 8.014112 0 114.00241 15.52046zM450.24549 288.81256l-216.284 55.77531a8.01411325 8.01411325 0 11-4.00242-15.52046l216.284-55.77531a8.01411325 8.01411325 0 014.00242 15.52046zM441.74873 388.25026l-184.273 47.52033a8.01412 8.01412 0 01-4.00242-15.52047l184.273-47.52032a8.01411325 8.01411325 0 014.00242 15.52046zM480.51376 406.18601l-216.284 55.77532a8.01412 8.01412 0 11-4.00241-15.52047l216.284-55.77531a8.01411325 8.01411325 0 014.00242 15.52046z"/>
  <path fill="#e6e6e6" d="M165.48104 249.74872l-65.21246 16.817a3.847 3.847 0 01-4.68062-2.76146L80.6185 205.75608a3.847 3.847 0 012.76145-4.68061l65.21247-16.817a3.847 3.847 0 014.68061 2.76145l14.96947 58.04817a3.847 3.847 0 01-2.76146 4.68063zM195.74932 367.12221l-65.21247 16.817a3.847 3.847 0 01-4.68062-2.76146l-14.96946-58.04816a3.847 3.847 0 012.76143-4.68058l65.21246-16.817a3.847 3.847 0 014.68062 2.76145l14.96946 58.04817a3.847 3.847 0 01-2.76142 4.68058zM226.01759 484.4957l-65.21246 16.817a3.847 3.847 0 01-4.68062-2.76145l-14.96946-58.04817a3.847 3.847 0 012.76145-4.68062l65.21247-16.817a3.847 3.847 0 014.68061 2.76146l14.96947 58.04816a3.847 3.847 0 01-2.76146 4.68062zM654.65867 109.99171H278.34031a48.17928 48.17928 0 00-48.125 48.12512v441.87579a48.17924 48.17924 0 0048.125 48.12507h376.31836a48.17924 48.17924 0 0048.125-48.12507V158.11683a48.17928 48.17928 0 00-48.125-48.12512z"/>
  <path fill="#fff" d="M654.6592 123.8459H278.34031a34.30948 34.30948 0 00-34.271 34.27093v441.87579a34.30947 34.30947 0 0034.271 34.27088H654.6592a34.30936 34.30936 0 0034.27051-34.27088V158.11683a34.30937 34.30937 0 00-34.27051-34.27093z"/>
  <circle cx="694.19401" cy="614.02963" r="87.85039" fill="#4f46e5"/>
  <path fill="#fff" d="M736.20942 602.57088h-30.55666v-30.55666a11.45875 11.45875 0 00-22.9175 0v30.55666H652.1786a11.45875 11.45875 0 000 22.9175h30.55666v30.55663a11.45875 11.45875 0 1022.9175 0v-30.55663h30.55666a11.45875 11.45875 0 000-22.9175z"/>
  <path fill="#e6e6e6" d="M598.02288 366.65552H407.7212a8.01412 8.01412 0 110-16.02823h190.30168a8.01412 8.01412 0 010 16.02823zM631.08109 393.70315H407.7212a8.01412 8.01412 0 110-16.02823h223.35989a8.014115 8.014115 0 110 16.02823zM598.02288 487.86901H407.7212a8.01412 8.01412 0 110-16.02823h190.30168a8.014115 8.014115 0 010 16.02823zM631.08109 514.91662H407.7212a8.01412 8.01412 0 110-16.02823h223.35989a8.01412 8.01412 0 110 16.02823zM365.09248 405.98163h-67.34594a3.847 3.847 0 01-3.84278-3.84278v-59.94726a3.847 3.847 0 013.84278-3.84278h67.34594a3.847 3.847 0 013.84278 3.84278v59.94726a3.847 3.847 0 01-3.84278 3.84278zM365.09248 527.1951h-67.34594a3.847 3.847 0 01-3.84278-3.84278v-59.94726a3.847 3.847 0 013.84278-3.84278h67.34594a3.847 3.847 0 013.84278 3.84278v59.94726a3.847 3.847 0 01-3.84278 3.84278z"/>
  <path fill="#ccc" d="M598.23405 231.72101H457.93237a8.014115 8.014115 0 010-16.02823h140.30168a8.014115 8.014115 0 010 16.02823zM631.29227 258.76863h-173.3599a8.01411 8.01411 0 110-16.02822h173.3599a8.01411 8.01411 0 010 16.02822z"/>
  <path fill="#4f46e5" d="M426.88131 291.54711H297.53536a3.847 3.847 0 01-3.84277-3.84277V186.75707a3.847 3.847 0 013.84277-3.84277h129.34595a3.847 3.847 0 013.84277 3.84277v100.94727a3.847 3.847 0 01-3.84277 3.84277z"/>
</svg>
