<svg id="_2" data-name="2" xmlns="http://www.w3.org/2000/svg" viewBox="0 0 769.36 141.7"><defs><style>.cls-1{fill:none;stroke:#000;stroke-miterlimit:10;stroke-width:4px;}</style></defs><path d="M247.87,569.85h-63.1q-32.73,0-50.59-14.77t-17.86-42.91v-82h44.1v81.42q0,11.58,6.19,18.46t18,6.89q11.77,0,18.06-7t6.29-18.36V430.15h39v139.7Z" transform="translate(-116.32 -430.15)"/><path d="M308.58,569.85l-60.71-71.56v71.56H208.68V430.15h39.19L306.55,499V430.15h41.22v139.7Z" transform="translate(-116.32 -430.15)"/><path d="M406.34,569.85,356.8,430.15h47.92l28,93.4h.81l28.22-93.4h45.89l-49.34,139.7Z" transform="translate(-116.32 -430.15)"/><path d="M630.84,448q19,17.85,19,52t-19,52q-19,17.87-54,17.86T523,552.09Q504.09,534.35,504.09,500T523,447.91q18.93-17.76,53.85-17.76T630.84,448ZM555.69,471q-7.26,8.44-7.26,22.76v12.56q0,14.33,7.26,22.76t21.19,8.43q13.93,0,21.29-8.43t7.36-22.76V493.72q0-14.33-7.36-22.76t-21.29-8.43Q562.95,462.53,555.69,471Z" transform="translate(-116.32 -430.15)"/><path d="M664.61,569.85V430.15h44.87v139.7Z" transform="translate(-116.32 -430.15)"/><path d="M818,465.89v104H773.09v-104H727.2V430.15H863.65v35.74Z" transform="translate(-116.32 -430.15)"/><circle class="cls-1" cx="747.33" cy="119.67" r="20.03"/><circle cx="747.33" cy="119.67" r="14.24"/></svg>