<svg xmlns="http://www.w3.org/2000/svg" data-name="Layer 1" viewBox="0 0 523 336" class="injected-svg gridItem__media"><circle cx="766.35" cy="561.776" r="43.067" transform="rotate(-45 256.696 829.381)" fill="#2f2e41"/><circle cx="762.929" cy="551.366" r="14.719" transform="rotate(-12.481 -695.732 1958.117)" fill="#fff"/><circle cx="756.966" cy="547.565" r="4.906" transform="rotate(-12.481 -701.695 1954.315)" fill="#3f3d56"/><path d="M426.148 250.66c-17.613-.033-29.977-3.179-29.948-19.136s14.332-28.867 31.945-28.834 31.868 12.995 31.838 28.952c-.03 15.957-16.221 19.05-33.835 19.018Z" fill="#6c63ff"/><path d="M495.352 286.974c-5.053 17.527-19.804 29.796-35.192 40.218q-3.223 2.183-6.447 4.266c-.015.006-.03.02-.045.026-.103.067-.207.133-.303.2l-1.328.855.242.109s.237.126-.022.02c-.078-.033-.159-.062-.236-.094-8.94-3.605-18.037-7.476-24.888-14.23-7.106-7.014-11.26-18.015-7.411-27.228a17.592 17.592 0 0 1 1.905-3.42c.312-.446.648-.873.998-1.293a18.856 18.856 0 0 1 32.385 5.73c1.131-10.526-7.548-19.343-15.9-25.848-8.357-6.503-17.852-13.584-19.468-24.051-.902-5.824 1.123-11.468 4.813-15.999.114-.137.228-.275.346-.409a27.518 27.518 0 0 1 17.687-9.489c12.813-1.331 25.259 5.451 34.568 14.36 14.982 14.333 24.039 36.35 18.296 56.277Z" fill="#e6e6e6"/><path d="M471.267 264.05a46.78 46.78 0 0 1 5.605 12.361 40.62 40.62 0 0 1 1.404 11.997 52.044 52.044 0 0 1-6.816 23.684 74.902 74.902 0 0 1-11.3 15.1q-3.223 2.183-6.447 4.266c-.015.006-.03.02-.045.026-.103.067-.207.133-.303.2l-1.328.855s.48.235.22.129c-.078-.033-.159-.062-.236-.094a41.405 41.405 0 0 0-13.249-35.65 41.76 41.76 0 0 0-17.145-9.227c.312-.447.648-.874.998-1.294a43.296 43.296 0 0 1 7.147 2.704 42.424 42.424 0 0 1 19.181 18.494 43.374 43.374 0 0 1 4.723 23.801c.367-.333.735-.673 1.092-1.01 6.792-6.333 12.826-13.602 16.91-21.992a48.416 48.416 0 0 0 5.069-22.907c-.333-8.653-3.781-16.668-8.773-23.646a101.346 101.346 0 0 0-19.21-19.799 115.158 115.158 0 0 0-23.893-14.75.828.828 0 0 1-.416-1.063.704.704 0 0 1 .346-.409.613.613 0 0 1 .532.023c1.054.485 2.1.977 3.139 1.49a116.465 116.465 0 0 1 24.062 15.873c7.083 6.038 13.751 12.937 18.733 20.838Z" fill="#fff"/><ellipse cx="73.714" cy="331.46" rx="10.903" ry="4.089" fill="#2f2e41"/><ellipse cx="99.881" cy="330.915" rx="10.903" ry="4.089" fill="#2f2e41"/><ellipse cx="469.744" cy="542.424" rx="21.534" ry="6.76" transform="rotate(-29.963 -226.414 1033.9)" fill="#2f2e41"/><circle cx="420.936" cy="555.946" r="43.067" transform="rotate(-80.783 85.96 613.876)" fill="#2f2e41"/><path fill="#2f2e41" d="M62.811 307.746h13.084v23.442H62.811zM88.978 307.746h13.084v23.442H88.978z"/><circle cx="83.527" cy="263.043" r="14.719" fill="#fff"/><circle cx="83.527" cy="263.043" r="4.906" fill="#3f3d56"/><path d="M40.66 233.895c-3.478-15.574 7.638-31.31 24.828-35.149s33.945 5.675 37.422 21.249-7.915 21.318-25.105 25.156-33.668 4.318-37.145-11.256Z" fill="#e6e6e6"/><ellipse cx="372.428" cy="535.963" rx="6.76" ry="21.534" transform="rotate(-64.626 -19.75 662.557)" fill="#2f2e41"/><path d="M61.282 289.483c0 4.215 10.853 12.539 22.896 12.539s23.336-11.867 23.336-16.082-11.292.818-23.336.818-22.896-1.49-22.896 2.725Z" fill="#fff"/><ellipse cx="232.609" cy="331.46" rx="10.903" ry="4.089" fill="#2f2e41"/><ellipse cx="206.441" cy="330.915" rx="10.903" ry="4.089" fill="#2f2e41"/><ellipse cx="513.579" cy="542.424" rx="6.76" ry="21.534" transform="rotate(-60.037 100.294 694.353)" fill="#2f2e41"/><circle cx="223.886" cy="273.946" r="43.067" fill="#2f2e41"/><path fill="#2f2e41" d="M230.428 307.746h13.084v23.442h-13.084zM204.261 307.746h13.084v23.442h-13.084z"/><circle cx="213.796" cy="263.043" r="14.719" fill="#fff"/><ellipse cx="545.296" cy="543.043" rx="4.921" ry="4.886" transform="rotate(-44.974 35.426 810.908)" fill="#3f3d56"/><path d="M228.518 245.15c-17.19-3.837-28.583-9.581-25.105-25.155s20.232-25.087 37.421-21.249 28.307 19.575 24.83 35.149-19.956 15.094-37.146 11.256Z" fill="#6c63ff"/><ellipse cx="601.895" cy="567.963" rx="6.76" ry="21.534" transform="rotate(-14.875 -647.49 1723.508)" fill="#2f2e41"/><path d="M214.13 286.758c-7.907 0-15.32-5.033-15.32-.818s7.413 16.082 15.32 16.082 15.031-8.323 15.031-12.538-7.125-2.726-15.032-2.726Z" fill="#fff"/><path d="M158.472 202.54h-3.825a12.937 12.937 0 0 1-12.923-12.924v-3.21c0-7.954 1.507-14.613 4.48-19.793a104.114 104.114 0 0 1 12.541-16.852 74.27 74.27 0 0 0 8.528-10.279 17.29 17.29 0 0 0 2.693-9.562c0-7.978-5.197-11.857-15.89-11.857a64.526 64.526 0 0 0-17.515 2.63 14.745 14.745 0 0 1-18.793-14.179v-6.5a14.463 14.463 0 0 1 8.532-13.256 78.083 78.083 0 0 1 31.81-6.258c11.445 0 21.776 1.922 30.707 5.713 8.948 3.8 16.017 9.157 21.012 15.924a38.352 38.352 0 0 1 7.536 23.244c0 8.98-2.452 16.801-7.287 23.246-4.782 6.38-11.638 13.365-20.376 20.76a145.204 145.204 0 0 0-13.063 12.307 22.718 22.718 0 0 0-5.432 10.112 12.888 12.888 0 0 1-12.735 10.733ZM156.345 263.31h-.504a23.951 23.951 0 0 1 0-47.902h.504a23.951 23.951 0 1 1 0 47.903Z" fill="#6c63ff"/><path d="M312 336H1a1 1 0 0 1 0-2h311a1 1 0 0 1 0 2ZM522 336H356a1 1 0 0 1 0-2h166a1 1 0 0 1 0 2Z" fill="#ccc"/><ellipse cx="757.339" cy="582.032" rx="21.534" ry="6.76" transform="rotate(-1.12 -13832.435 17750.767)" fill="#2f2e41"/><path d="M408.161 149h-26a5.006 5.006 0 0 1-5-5v-26a5.006 5.006 0 0 1 5-5h26a5.006 5.006 0 0 1 5 5v26a5.006 5.006 0 0 1-5 5Zm-26-34a3.003 3.003 0 0 0-3 3v26a3.003 3.003 0 0 0 3 3h26a3.003 3.003 0 0 0 3-3v-26a3.003 3.003 0 0 0-3-3Z" fill="#f2f2f2"/><path d="M420.161 132h-26a5.006 5.006 0 0 1-5-5v-26a5.006 5.006 0 0 1 5-5h26a5.006 5.006 0 0 1 5 5v26a5.006 5.006 0 0 1-5 5Zm-26-34a3.003 3.003 0 0 0-3 3v26a3.003 3.003 0 0 0 3 3h26a3.003 3.003 0 0 0 3-3v-26a3.003 3.003 0 0 0-3-3ZM215.161 49h-26a5.006 5.006 0 0 1-5-5V18a5.006 5.006 0 0 1 5-5h26a5.006 5.006 0 0 1 5 5v26a5.006 5.006 0 0 1-5 5Zm-26-34a3.003 3.003 0 0 0-3 3v26a3.003 3.003 0 0 0 3 3h26a3.003 3.003 0 0 0 3-3V18a3.003 3.003 0 0 0-3-3Z" fill="#f2f2f2"/><path d="M199.161 36h-26a5.006 5.006 0 0 1-5-5V5a5.006 5.006 0 0 1 5-5h26a5.006 5.006 0 0 1 5 5v26a5.006 5.006 0 0 1-5 5Zm-26-34a3.003 3.003 0 0 0-3 3v26a3.003 3.003 0 0 0 3 3h26a3.003 3.003 0 0 0 3-3V5a3.003 3.003 0 0 0-3-3Z" fill="#f2f2f2"/><circle cx="321.22" cy="183.17" r="6.467" fill="#f2f2f2"/><circle cx="61.22" cy="160.17" r="6.467" fill="#f2f2f2"/><circle cx="497.22" cy="216.17" r="6.467" fill="#f2f2f2"/></svg>