<svg id="Layer_2" data-name="Layer 2" xmlns="http://www.w3.org/2000/svg" xmlns:xlink="http://www.w3.org/1999/xlink" viewBox="0 0 1000 1000"><defs><style>.cls-1{fill:none;}.cls-2{fill:#3d3d3d;}.cls-3{clip-path:url(#clip-path);}.cls-4{fill:#a5a4a4;}</style><clipPath id="clip-path"><path class="cls-1" d="M754,169.23A415.15,415.15,0,0,0,500,83C269.67,83,83,269.67,83,500S269.67,917.05,500,917.05,917.05,730.33,917.05,500C917.05,365.27,853.16,245.47,754,169.23ZM500,785.63c-157.75,0-285.63-127.88-285.63-285.63S342.25,214.37,500,214.37,785.63,342.25,785.63,500,657.75,785.63,500,785.63Z"/></clipPath></defs><path class="cls-2" d="M754,169.23A415.15,415.15,0,0,0,500,83C269.67,83,83,269.67,83,500S269.67,917.05,500,917.05,917.05,730.33,917.05,500C917.05,365.27,853.16,245.47,754,169.23ZM500,785.63c-157.75,0-285.63-127.88-285.63-285.63S342.25,214.37,500,214.37,785.63,342.25,785.63,500,657.75,785.63,500,785.63Z"/><g class="cls-3"><path class="cls-4" d="M670.1,331.92c7.72,0,7.73-12,0-12S662.36,331.92,670.1,331.92Z"/><path class="cls-4" d="M845.75,193.07c7.72,0,7.73-12,0-12S838,193.07,845.75,193.07Z"/><path class="cls-4" d="M691.24,369.58q98.89-62.79,196.62-127.39,27.93-18.47,55.74-37.07c6.39-4.27.39-14.67-6.06-10.36q-97.36,65.12-195.93,128.43-28.17,18.09-56.42,36c-6.51,4.13-.49,14.52,6,10.37Z"/><path class="cls-4" d="M741.72,349.24c28.2-10,54.25-24.74,79.19-41.11,12.43-8.17,25.52-16.19,37.08-25.55,4.72-3.82,7.63-9.88,4.65-15.74a9.57,9.57,0,0,0-12.82-4.35,9.24,9.24,0,0,0-2,1.28c-2.93,2.37-5,5.88-7.45,8.74q-4,4.68-8.28,9.06a157.6,157.6,0,0,1-19.39,16.73c-6.12,4.46-.45,14.73,6.06,10.36,10.84-7.28,21.71-15.43,25.5-28.55,1.33-4.63-4.48-10-8.82-6.78a828.89,828.89,0,0,1-95.41,62.09c-6.75,3.76-.71,14.13,6,10.36A831.13,831.13,0,0,0,841.5,283.7l-8.81-6.78c-2.85,9.87-11.89,15.94-20,21.38l6.06,10.36a171.08,171.08,0,0,0,32.89-31.05c.41-.52,3.13-3.11,3-3.87-.55-5.14-4.21-.47-5.14.24-3,2.33-6.29,4.4-9.43,6.58-6.41,4.45-12.84,8.88-19.32,13.22C795,311.11,768,327.22,738.53,337.67c-7.23,2.56-4.12,14.16,3.19,11.57Z"/><path class="cls-4" d="M859.59,279.57a417.46,417.46,0,0,0-53.19,37.7c-6,5,2.52,13.14,8.49,8.48,13.59-10.62,27.9-20.39,43.84-27.16l-7.27-9.42a333.73,333.73,0,0,1-50.89,41.55l7.27,9.43a166.19,166.19,0,0,1,35.5-27.73c6.67-3.89.67-14.19-6.05-10.36q-34.51,19.67-68.2,40.7l6,10.36a539.89,539.89,0,0,1,55.75-30.42l-6-10.36a359.29,359.29,0,0,1-32.48,19.36l8.21,8.21A172.14,172.14,0,0,1,822,314.37c4.7-4.62-1.73-13.66-7.27-9.43q-21.79,16.63-44.49,32l7.27,9.43,14.63-12.32c5.15-4.34-1.72-13.4-7.28-9.42a216.53,216.53,0,0,1-35.69,20.69l6.06,10.36,14.93-9.83c6.43-4.23.79-14.05-6-10.36l-29.83,16.06c-6.84,3.68-.81,13.8,6.05,10.36a191.07,191.07,0,0,1,33.71-13l-4.62-11a391.72,391.72,0,0,1-38.15,22.54l6.06,10.37a256.88,256.88,0,0,1,51.11-20.77l-4.62-11q-16.65,11.32-34.26,21.11c-6.86,3.81-.84,13.54,6.06,10.36a284.07,284.07,0,0,1,57.74-19.35l-3.19-11.57a711.06,711.06,0,0,1-74.69,25.89l3.19,11.57A740.74,740.74,0,0,1,833.51,347l-3.19-11.57c-19.39,7.49-38.81,14.93-58.84,20.53l5.84,10A200.53,200.53,0,0,1,835,335l-5.84-10a196.45,196.45,0,0,1-41.59,24.42l8.21,8.21c3.22-5.49,9.34-8.52,14.6-11.74,6.22-3.81,12.52-7.48,18.87-11.06,13-7.33,26.16-14.28,39.35-21.22l-7.27-9.43a422.81,422.81,0,0,1-38.43,31.74l8.21,8.21a346.23,346.23,0,0,1,40.21-45l-8.48-8.49a144.5,144.5,0,0,1-34.8,29.6l8.21,8.21a158.05,158.05,0,0,1,26.89-36l-10-5.84a154.24,154.24,0,0,1-16.32,29c-3.91,5.51,5,12.48,9.42,7.27l26.18-31-10-5.84a140.78,140.78,0,0,1-16.21,37.75c-3.53,5.76,4.74,12.29,9.43,7.28,9.65-10.32,19.36-20.59,30.42-29.42l-9.42-7.28A200.8,200.8,0,0,1,831,339.72l7.27,9.42a137,137,0,0,1,37.09-29.48l-6.06-10.36q-37.47,27-77.15,50.63l6.06,10.36c23.25-16.58,50-26.42,77.1-34.72l-4.62-11c-35.26,20.77-72.38,38.05-109.46,55.24l6,10.36a575.41,575.41,0,0,1,108.48-44.54l-4.62-11c-30,19-61.11,36.14-92.22,53.24l7.27,9.43c16.63-14.26,36.58-23.86,56.27-33.11,21.54-10.12,43.37-19.61,65.2-29.1l-6.06-10.36q-29.94,16.13-60.4,31.26-14.8,7.35-29.72,14.44c-10,4.76-20.45,11.13-31.38,13.26l6.77,8.81c6.7-9.5,18.57-15.57,28.12-21.73,11.06-7.14,22.28-14,33.49-20.91,5.59-3.43,2-13.26-4.62-11q-68.94,23.73-139.39,42.66l4.62,11a458.33,458.33,0,0,1,97.86-37.76l-5.84-10a208,208,0,0,1-33,27.9c-6.34,4.31-.79,14.13,6.06,10.36a308.25,308.25,0,0,1,47.68-21.22l-4.63-11q-41.4,17.85-84.28,32l4.63,11a117.61,117.61,0,0,1,31.75-9.67l-4.63-11a191.93,191.93,0,0,1-37.72,18.19c-7.24,2.54-4.12,14.14,3.19,11.57a205.51,205.51,0,0,0,40.59-19.39c6.07-3.78,1.89-12-4.62-11a128.66,128.66,0,0,0-34.62,10.87c-6.13,2.9-1.81,13.1,4.62,11q44.3-14.67,87.15-33.2c6.21-2.68,1.78-13.19-4.62-11A326.63,326.63,0,0,0,768,372.61L774.06,383a223.14,223.14,0,0,0,35.43-29.78c4.16-4.31,0-11.54-5.84-10a473.86,473.86,0,0,0-100.73,39c-6.09,3.2-1.86,12.72,4.63,11Q778,374.17,846.94,350.44l-4.63-11c-12.3,7.56-24.61,15.11-36.71,23-10.55,6.87-21.82,13.49-29.2,23.94-3.28,4.66,2.12,9.73,6.78,8.82,10.74-2.09,20.93-8.16,30.74-12.8q15.81-7.48,31.49-15.24,31.35-15.53,62.14-32.13c7-3.75.84-13.36-6.06-10.36-22.41,9.74-44.84,19.49-66.94,29.92-20.12,9.49-40,19.6-56.95,34.16-5.31,4.56,1.47,12.61,7.27,9.43C816,381.12,847.08,364,877.09,345c5.59-3.54,2.1-13-4.63-11a591,591,0,0,0-111.34,45.75c-6.9,3.7-.84,13.56,6,10.36,37.09-17.19,74.21-34.47,109.46-55.24,5.76-3.39,2-13-4.62-11-28,8.58-55.94,18.81-80,35.94-6.18,4.4-.7,14.39,6.06,10.36q39.65-23.66,77.15-50.63c6.17-4.44.85-14.12-6.06-10.36a146.47,146.47,0,0,0-39.52,31.36c-4.25,4.78,1.42,13.61,7.28,9.42a218.55,218.55,0,0,0,50-49.65c4.33-6-4.56-11.15-9.42-7.27-11.06,8.84-20.78,19.1-30.43,29.42l9.43,7.27a152.34,152.34,0,0,0,17.41-40.62c1.45-5.46-6-10.6-10-5.84l-26.17,31,9.42,7.27a166.39,166.39,0,0,0,17.53-31.87c2.44-5.77-6.12-9.76-10-5.84a170.09,170.09,0,0,0-28.76,38.47c-2.81,5.13,2.93,11.41,8.21,8.21A154.89,154.89,0,0,0,871.31,299c5-5.81-2.8-13.85-8.48-8.49A363.33,363.33,0,0,0,820.74,338c-3.54,4.75,3.47,11.67,8.21,8.21A451.47,451.47,0,0,0,869.8,312.6c5.15-4.78-1.4-12.52-7.27-9.43-14.3,7.54-28.61,15.08-42.66,23.1-6.88,3.93-13.71,8-20.41,12.19-5.54,3.51-10.68,7.29-14.05,13s3,10.47,8.21,8.21a206.82,206.82,0,0,0,44-26.3c4.78-3.69-.41-11.89-5.83-10a217.88,217.88,0,0,0-63,34.07c-4.94,3.82.47,11.53,5.83,10,20-5.6,39.45-13,58.84-20.53,7.07-2.74,4.46-13.45-3.19-11.57a740.67,740.67,0,0,0-94.81,30.14c-7,2.76-4.41,13.75,3.19,11.57a711.06,711.06,0,0,0,74.69-25.89c7-2.86,4.55-13.28-3.19-11.57a298.84,298.84,0,0,0-60.61,20.56l6.06,10.36q17.6-9.78,34.26-21.11c5.41-3.68,2.22-12.93-4.63-11a271.91,271.91,0,0,0-54,22c-6.82,3.67-.78,13.91,6.06,10.37a395.73,395.73,0,0,0,38.14-22.55c5.47-3.66,2.2-12.89-4.62-11a207.51,207.51,0,0,0-36.57,14.23l6,10.36,29.83-16.06-6-10.36-14.94,9.83c-6.54,4.3-.9,13.55,6.06,10.36A215.63,215.63,0,0,0,791,335l-7.27-9.42L769.1,337.89c-5.18,4.36,1.63,13.24,7.27,9.42q22.71-15.36,44.49-32l-7.27-9.43a189.47,189.47,0,0,0-23.34,28c-3.59,5.24,3.27,10.81,8.21,8.2a357,357,0,0,0,32.48-19.36c6.48-4.33.91-13.64-6-10.36a537,537,0,0,0-55.75,30.42c-6.54,4.08-.52,14.46,6,10.36q33.69-21,68.2-40.7l-6-10.36a178.71,178.71,0,0,0-37.94,29.6c-4.62,4.74,1.43,13.3,7.27,9.43A349.08,349.08,0,0,0,860,297.67c5.2-5.17-1.36-11.93-7.27-9.42-16.93,7.18-31.85,17.77-46.27,29l8.49,8.48a398.88,398.88,0,0,1,50.75-35.82c6.63-4,.6-14.33-6-10.36Z"/><path class="cls-4" d="M504.14,755.42V987c0,7.72,12,7.73,12,0V755.42C516.14,747.7,504.14,747.68,504.14,755.42Z"/><path class="cls-4" d="M500.45,769.66V985.92c0,7.72,12,7.74,12,0V769.66C512.45,761.94,500.45,761.93,500.45,769.66Z"/><path class="cls-4" d="M498.87,780.74V987c0,7.72,12,7.73,12,0V780.74C510.87,773,498.87,773,498.87,780.74Z"/><path class="cls-4" d="M776.56,377.34a180,180,0,0,0-57.46,25.5c-5.5,3.71-2.21,12.75,4.62,11q52.11-13.59,103.9-28.34l-3.19-11.57L739.51,400.8l4.62,11a487.81,487.81,0,0,1,88.8-29l-4.63-11a253.72,253.72,0,0,1-56.84,22.39l5.83,10,80.55-71.84c4.52-4-.24-11.7-5.83-10A47.18,47.18,0,0,0,833.25,333c-4.93,4.56,1.58,13.3,7.27,9.43a309.14,309.14,0,0,1,71.83-36.28l-5.84-10a494.59,494.59,0,0,1-63.46,55.12l7.27,9.43a309.25,309.25,0,0,1,74.22-42.36l-5.84-10a715.29,715.29,0,0,1-60.83,44l8.82,6.78c3.48-21.84,15.77-40.29,27.93-58.25,3.6-5.33-3.25-10.7-8.21-8.21a159.29,159.29,0,0,0-42.51,31.15c-4,4.07,0,12.1,5.83,10q23.57-8.31,46.47-18.26c7.07-3.05,1-13.39-6.06-10.36q-21.5,9.29-43.6,17.05l5.84,10A149.38,149.38,0,0,1,892.47,303l-8.21-8.21c-12.69,18.75-25.51,38.33-29.14,61.12-.76,4.74,4,9.89,8.81,6.77a748.7,748.7,0,0,0,63.26-45.87c4.56-3.68-.36-12.22-5.84-10a329.57,329.57,0,0,0-79.51,45.44c-5.34,4.12,1.75,13.44,7.27,9.42a511.39,511.39,0,0,0,65.88-57c4-4.08,0-12.08-5.83-10a320.73,320.73,0,0,0-74.69,37.49l7.27,9.42a33.53,33.53,0,0,1,13.46-7.64l-5.84-10L768.81,395.7c-4.62,4.11.28,11.48,5.84,10a268.29,268.29,0,0,0,59.71-23.6c6.16-3.34,1.84-12.43-4.62-11a501.77,501.77,0,0,0-91.67,30.24c-6.23,2.74-1.79,13,4.63,11l84.92-26.91c7.32-2.32,4.28-13.7-3.19-11.57q-51.79,14.75-103.9,28.34l4.63,11a170.11,170.11,0,0,1,54.59-24.29c7.49-1.86,4.32-13.43-3.19-11.57Z"/><path class="cls-4" d="M870.16,343.58l-83.82,41.09c-6,2.94-1.7,13.58,4.62,11a1213.45,1213.45,0,0,1,145.13-49.44l-4.63-11-147.34,64,7.27,9.42a368,368,0,0,1,93.36-57l-6.06-10.36Q800.45,380.62,721.23,418l6.06,10.37A1080.28,1080.28,0,0,1,929.8,336.21l-4.63-11q-92,44.63-187.77,81-27.35,10.38-54.94,20.06l4.62,11a892.92,892.92,0,0,1,189.53-67.84q27.9-6.56,56.16-11.3l-4.62-11Q827.34,395.05,723.7,436.64l4.63,11a757.05,757.05,0,0,1,167-69.28l-4.62-11A1031.63,1031.63,0,0,1,705,429.16l5.84,10c5.62-5.34,12.64-8.55,19.81-11.29,8.18-3.13,16.45-6,24.72-8.91q24.45-8.47,49.27-15.81,50.55-14.94,102.36-25l-4.62-11c-52.74,22.6-108.26,37.69-163.5,52.74-7.58,2.07-4.29,12.86,3.19,11.57L905,403.57,901.8,392a1970,1970,0,0,1-216.06,46.88l4.63,11c58.61-33.27,123.31-53.27,188.28-70,18.4-4.73,36.87-9.22,55.34-13.71L930.8,354.6q-71.28,27.11-143,53l4.62,11a1048.06,1048.06,0,0,1,137.3-51.41l-4.63-11C862.79,384.85,796,401.7,729.23,416.46l4.62,11A779.62,779.62,0,0,1,915.1,374q26.65-4.44,53.55-7l-4.24-10.24c-9.9,10.2-22.64,16.46-35.48,22.16-14.82,6.57-29.74,12.94-44.64,19.33q-45.7,19.61-91.69,38.57c-7,2.91-4,14.51,3.19,11.57A1843.7,1843.7,0,0,1,996.93,379.3l-3.19-11.57q-113.61,33.79-229.33,59.82l3.19,11.57A1262.23,1262.23,0,0,1,910.91,396.7l-3.19-11.57a669.14,669.14,0,0,1-116.83,33l4.63,11a616.53,616.53,0,0,1,137.54-59.25l-4.62-11a607,607,0,0,1-131.09,43.74l3.19,11.57a887.22,887.22,0,0,1,130.9-34.63l-4.62-11a1014.34,1014.34,0,0,1-141.16,55.8l4.62,11a753,753,0,0,1,160.26-49.13l-4.63-11c-56.16,30.38-120.55,39.8-178.83,65.1-5.35,2.32-2.76,11.85,3,11.18A1293.77,1293.77,0,0,1,916,442.8l-5.78-7.59c-2.71,9.88-19.11,11.48-27.21,13.55l-43.47,11.09-87.91,22.44c-7.54,1.92-4.33,13.13,3.19,11.57a655.87,655.87,0,0,1,135.33-13.65l-3-11.18C836.47,497.09,778.5,506.53,722,515.64c-6.76,1.09-5,11.87,1.6,11.79l99.09-1.16-5.18-9c-2.63,5.88-7.71,9-13.35,11.67-6.89,3.29-14.08,6-21.13,8.93q-23.19,9.6-46.5,18.93Q690,575.45,642.93,593.06c-13.27,5-31.51,8.35-37.44,22.9-1.55,3.81,2.3,7.46,5.78,7.6l75,3L722.84,628l18.76.74c3.37.13,10.71-.62,13,2.6l2.15-8.21L729.51,642.6c-4.42,3.16-3.45,11.57,3,11.18q57.48-3.42,115.12-2.91,13.9.14,27.8.5c5,.12,9.92.28,14.89.45,4.46.16,9.32-.17,13.71.74,7,1.45,6.36,7.74,5.84,13.52-.6,6.84-1.57,13.59.54,20.3L914.6,679c-7.51,1.89-14.64-2.72-20.85-6.41-7.1-4.22-14.22-8.39-21.42-12.42q-20.8-11.64-42.28-22a829.5,829.5,0,0,0-88.61-36.82c-8.65-3-17.36-5.92-26.12-8.62-6.58-2-14.45-3.4-19.55,2.43a6.22,6.22,0,0,0-.93,7.27A433.62,433.62,0,0,0,758,689.68c4.58,4.91,13.28-1.56,9.42-7.27-15.13-22.41-38-41-64.14-48.83-17.77-5.33-20.36,15-23.94,27.31L665.17,710,661,724.25c-.8,2.77-1.5,9.25-4,11.2-1.41,1.12-.13.77-1.46.23s-3.1-2.85-4.21-4a109.72,109.72,0,0,1-9.1-10.41c-4.52-5.82-11.92,1.61-9.42,7.27A195.77,195.77,0,0,1,649.25,801l9-5.18a53.38,53.38,0,0,1-19.7-19.6c-3.9-6.67-14.27-.63-10.37,6.06a65.87,65.87,0,0,0,24,23.9c3.84,2.22,9.18-.57,9-5.18a211.11,211.11,0,0,0-18-78.48l-9.43,7.28c6.5,8.2,19.78,26.2,31.25,14.88,4.78-4.75,6.13-12,7.93-18.19L680,701.87l14-48.3c.55-1.9,1.23-8.06,3.27-9.06,1.81-.88,7,2,8.77,2.65a109.15,109.15,0,0,1,18.11,9.25,111.61,111.61,0,0,1,33,32l9.42-7.27a422,422,0,0,1-61.32-84.83l-.94,7.27c1.42-1.62,4.29-.41,6.12.11,4.1,1.19,8.17,2.57,12.23,3.89q10.9,3.55,21.69,7.42,22.15,7.93,43.82,17.13a812.83,812.83,0,0,1,83.74,41.55c13.64,7.77,29.22,21.09,45.93,16.88a6.06,6.06,0,0,0,4.19-7.38c-4-12.82,6.24-29.77-7.58-39.2-7.06-4.81-16.94-3.92-25.08-4.2q-15.87-.56-31.76-.8-62.55-1-125,2.79l3,11.19,27.25-19.47c2.43-1.74,4.2-5.4,2.15-8.21-6.86-9.44-18.84-8.37-29.33-8.79l-41.47-1.63-82.94-3.27,5.79,7.59c2-4.92,8.86-7,13.38-8.68q11.52-4.29,23-8.61,23-8.67,46-17.6,46.32-18,92.23-37.11c12.82-5.33,30-10,36.2-23.86,1.77-4-.25-9.08-5.18-9l-99.09,1.16,1.59,11.78c57.59-9.29,116.31-19.21,168-47.82,5.27-2.91,2.83-11.16-3-11.18a671.46,671.46,0,0,0-138.52,14.08l3.19,11.57L850.5,469.5c15.54-4,31.16-7.73,46.65-11.91,10.47-2.83,21.56-7.78,24.68-19.14a6.06,6.06,0,0,0-4.34-7.4,6,6,0,0,0-1.45-.2,1293.29,1293.29,0,0,0-145.89,8.76l3,11.18c58.33-25.32,122.56-34.66,178.84-65.1,6.29-3.41,1.76-12.18-4.62-11A766.61,766.61,0,0,0,784.23,425c-6.26,2.72-1.8,13,4.62,11a1035.66,1035.66,0,0,0,144-57c6.49-3.15,1.64-12.12-4.63-11a887.22,887.22,0,0,0-130.9,34.63c-7.28,2.54-4.4,13.18,3.19,11.57a620.43,620.43,0,0,0,134-44.95c6.21-2.9,1.81-12.85-4.63-11a629.27,629.27,0,0,0-140.41,60.46c-6.13,3.58-1.86,12.18,4.62,11a669.14,669.14,0,0,0,116.83-33c7.1-2.72,4.47-13.35-3.19-11.57a1260.23,1260.23,0,0,0-143.31,42.43c-7.21,2.61-4.43,13.28,3.19,11.57q115.65-26,229.33-59.82c7.39-2.19,4.28-13.66-3.19-11.57A1843.81,1843.81,0,0,0,792.6,436.83l3.19,11.57q47.41-19.56,94.56-39.78c15.42-6.61,30.87-13.16,46.18-20,13.25-5.94,26.15-12.82,36.37-23.35,3.34-3.44,1.17-10.76-4.25-10.24a791.5,791.5,0,0,0-189.42,41.68c-17.39,6.16-34.53,13-51.46,20.3-6.49,2.82-1.68,12.37,4.63,11,67.81-15,135.42-32.36,198.73-61.48,6.22-2.86,1.8-12.87-4.62-11a1067.71,1067.71,0,0,0-140.16,52.62c-6.14,2.8-1.78,13.27,4.62,11q71.73-25.86,143-53c7.11-2.7,4.46-13.42-3.19-11.57-66,16-132.34,32.3-194.9,59.31a532.06,532.06,0,0,0-51.59,25.6c-6.31,3.58-1.74,12,4.62,11A1970.19,1970.19,0,0,0,905,403.57c7.57-2.09,4.29-12.85-3.19-11.57l-162.9,27.91,3.19,11.57c56.29-15.34,112.63-30.92,166.36-54,6.6-2.83,1.62-12.19-4.62-11q-53.61,10.5-106,26.13-25.7,7.69-51,16.62c-15.27,5.38-32.37,10-44.4,21.39-4.51,4.29.22,11.32,5.84,10a1047.11,1047.11,0,0,0,188.54-63c6.3-2.79,1.78-12.76-4.63-11a770.6,770.6,0,0,0-169.86,70.49c-5.75,3.23-1.83,13.55,4.62,11Q832,406,934.26,357.44c6.59-3.13,1.59-12-4.62-11A899.69,899.69,0,0,0,733.78,403Q707,414.16,681,426.93c-6,3-1.81,13.23,4.62,11q97.53-34.26,191.77-77,27.08-12.3,53.81-25.27c6.08-3,1.82-13.13-4.62-11A1097.3,1097.3,0,0,0,721.2,417.94c-6.76,4-.84,13.61,6.06,10.37Q806.48,391,884.72,351.62c7-3.55.85-13.29-6.06-10.36a377.63,377.63,0,0,0-95.78,58.91c-5.67,4.76,1.56,11.9,7.27,9.42l147.34-64c6.34-2.75,1.77-12.7-4.62-11A1213.45,1213.45,0,0,0,787.74,384l4.62,11,83.82-41.09c6.94-3.4.86-13.75-6-10.36Z"/><path class="cls-4" d="M508.94,777.59a10.39,10.39,0,0,0,.62,7.57c1.11,2.33,3.53,4.23,4.21,6.73,1.33,5-3.26,12.07-4.46,16.81-3.31,13.06-1.81,27.07-1.4,40.37l2.67,86.84c.24,7.7,12.24,7.73,12,0L520,851.07c-.4-13.05-2.32-27.31,1.15-40.06,1.49-5.49,4.21-10.6,4.67-16.35a17.44,17.44,0,0,0-.92-7.34c-.35-1-4.41-6.35-4.36-6.54,2-7.47-9.59-10.66-11.57-3.19Z"/><path class="cls-4" d="M521.07,776.41l20.17,19c5.62,5.29,14.12-3.18,8.49-8.49l-20.18-19C523.93,762.63,515.43,771.1,521.07,776.41Z"/><path class="cls-4" d="M527.62,776.91V953.75c0,7.72,12,7.73,12,0V776.91C539.62,769.19,527.62,769.18,527.62,776.91Z"/><path class="cls-4" d="M520.49,774.54V966.8c0,7.72,12,7.74,12,0V774.54C532.49,766.82,520.49,766.8,520.49,774.54Z"/><path class="cls-4" d="M515.75,776.91V958.49c0,7.73,12,7.74,12,0V776.91C527.75,769.19,515.75,769.18,515.75,776.91Z"/><path class="cls-4" d="M537.11,757.92V944.25c0,7.72,12,7.74,12,0V757.92C549.11,750.2,537.11,750.19,537.11,757.92Z"/><path class="cls-4" d="M535.92,752V952.56c0,7.72,12,7.73,12,0V752C547.92,744.28,535.92,744.26,535.92,752Z"/><path class="cls-4" d="M543,788.78V907.46c0,7.72,12,7.74,12,0V788.78C555,781.06,543,781.05,543,788.78Z"/><path class="cls-4" d="M552.54,769.79V960.87c0,7.72,12,7.73,12,0V769.79C564.54,762.07,552.54,762.06,552.54,769.79Z"/><path class="cls-4" d="M520,792.08a350,350,0,0,1,54.22-8.66L570,773.17l-16.38,13.91c-4.43,3.76.3,12.23,5.84,10l81.94-32.64-5.83-10a80.61,80.61,0,0,1-25.48,21.36l7.27,9.42C637.3,762.9,661.8,743.7,691.82,738L686,728l-119.6,95.8c-5.27,4.22,1.72,13.39,7.27,9.43A573.57,573.57,0,0,1,662,781.38l-8.21-8.21-74.56,116c-3.83,6,4.52,11.67,9.42,7.27L743.92,756.8l43.82-39.41-9.43-7.27c-27.67,59-67.38,111-110.51,159.49l9.42,7.27A2201.1,2201.1,0,0,1,827.77,686.49l-10.24-4.25c2.43,34.41-12.41,67.93-24.82,99.24q-19.32,48.76-42.94,95.67l11,4.63a856.17,856.17,0,0,0,13.06-218.4c-.43-6.27-7.61-7.73-11.18-3A1809.65,1809.65,0,0,0,642.9,839c-3.95,6.74,6.07,12.39,10.36,6.06C691,789.43,718.45,727.81,745.6,666.51l-11-4.63a655.34,655.34,0,0,1-61.17,121.67l11,4.63a1084,1084,0,0,1,75.08-181.36l-11-4.62a1729.13,1729.13,0,0,1-50,190.22c-1,3.15,1.2,6.46,4.19,7.38,15,4.64,24.33-12.19,31.23-22.44q14.28-21.23,28.25-42.66,27.93-42.86,54.59-86.53,15.09-24.7,29.77-49.68l-11-1.43c2.26,13.73-2,27.68-5,41l-10,43.42-19.72,85.88c-1.5,6.53,7.4,10.61,11,4.63,35.33-59.29,60.69-123.77,83.47-188.73,6.47-18.48,12.75-37,19-55.55l-11.57-3.19L874.24,653.13c-1.39,6.27,8,11.1,11,4.62,25.45-54.87,40-113.65,54.23-172.19,1.53-6.3-8.1-11.09-11-4.63A1096.4,1096.4,0,0,1,816.68,676l11,1.44c-13.52-70.33,15.1-140.06,22.21-209.45.62-6.06-8.45-8-11.18-3l-103,186.09L746,657.16c30.5-67.53,61-135.26,83.64-205.92,2.22-6.95-7.19-9.73-11-4.63L740.19,552.54l11,4.62a739.68,739.68,0,0,1,95.35-174.89l-11-4.62q-36.42,97.74-79.6,192.78l10.36,6.06q33.53-77.18,65.29-155.1L820,418.2a758.31,758.31,0,0,1-56.81,118.91l11.18,3a818.33,818.33,0,0,1,25-120c1.7-5.91-5.76-9.84-10-5.84-17.47,16.39-26.32,40.12-36.43,61.29L717.8,549.15c-3.29,6.9,6.81,13,10.37,6.06A1113.41,1113.41,0,0,1,792.4,445.8l-11.18-3a458.94,458.94,0,0,1-7.85,91.14c-.55,2.9.78,6.85,4.19,7.38,6.78,1.07,12-1.75,16.35-6.93,5-6,9.4-12.68,14-19l28.6-39.16q28.9-39.56,57.79-79.12l-11-4.62C868.4,448.44,846,501.93,823.64,555.2c-2.62,6.22,8.14,10.81,11,4.63q41.61-91.22,90.69-178.74l-11.18-3a813,813,0,0,1-25.69,138.3c-2.1,7.61,8.82,10.23,11.58,3.19l41.88-106.87H930.37c5,14.26,4.45,29.2,2.81,44-1.73,15.61-4.22,31.15-7,46.61a852.53,852.53,0,0,1-22.28,93.12l11.78,1.6,2.15-85.2c.15-5.85-8.39-8.3-11.18-3L845.49,625.39l11,4.62q39.38-103.28,85.45-203.82l-11-4.62a1802.46,1802.46,0,0,1-80.35,227.59l11,4.63q34.49-115,59.71-232.4c1.66-7.76-10.58-16.65-13.52-9.7L830.45,606,842,609.18l49.49-182.12-11.58-3.19A1334.63,1334.63,0,0,1,833.4,565.39l11.6,3.19q23.47-64,43.28-129.19c1.92-6.34-8.27-11-11-4.62L823.9,560.37l11,4.62q40.19-104.72,82.73-208.51L906,353.29q-31.61,100-69,198-10.74,28.11-21.93,56l11.57,3.19a1032.66,1032.66,0,0,1,63-186.59q11.55-25.72,24.49-50.79l-11-4.63c-21.13,75.19-44.31,149.78-68,224.21q-10,31.56-20.15,63.11c-2,6.35,8.23,10.93,11,4.62,30.76-70.8,54.33-144.36,76-218.36q9.18-31.26,18.07-62.61c2.13-7.44-9.38-10.59-11.57-3.19Q876,486.4,834,593.4l11.58,3.19A1780.5,1780.5,0,0,0,894,418.15c1.35-6.24-8.08-11.19-11-4.63a1402.62,1402.62,0,0,1-87.64,167.56l11,4.63,28.52-178.29c1-6.23-7.5-11.1-11-4.62q-39,72.9-71.4,149.1c-3,6.94,7,13.14,10.36,6.05L826.6,423.26l-11-4.63Q796,484.29,771.35,548.23c-2.44,6.31,8,10.71,11,4.62,25.17-51.36,50.5-102.84,82.21-150.58l-11-4.62L780.3,589.52c-2.44,6.38,7.77,10.54,11,4.62a1544.74,1544.74,0,0,0,86-188.87l-11.57-3.19A1425,1425,0,0,1,810.33,554l11,4.62a941.82,941.82,0,0,1,54.48-126l-11-4.62L809,589.18c-2.2,6.36,8,10.77,11,4.62a1354.73,1354.73,0,0,0,78-203c2.23-7.55-8.83-10.23-11.57-3.19L818.72,561.76c-1.6,4.12,3.3,8.91,7.38,7.38,11.95-4.48,20.06-13.51,27.61-23.44,9.46-12.46,18.65-25.13,27.84-37.78q27.78-38.24,54.5-77.23l-11-4.62L866.53,599.21c-2.15,6.34,8.17,10.87,11,4.62a847.75,847.75,0,0,0,48.84-141.12c1.88-7.54-9.12-10.47-11.58-3.19L873.07,583c-2.14,6.34,8.15,10.86,11,4.62Q907.41,536,934,485.85l-11-4.63L891.32,581.75c-2.34,7.43,9,10.38,11.57,3.19a1304,1304,0,0,0,38-126.28c1.86-7.55-9.12-10.48-11.57-3.19l-38.2,113.24c-2.53,7.5,8.68,10.09,11.57,3.19q24.24-57.71,44.24-117.06l-11.58-3.19Q901.06,561,858.74,667.54l11.78,1.59a474.19,474.19,0,0,1,19.3-112.25l-11.57-3.19L841.91,693c-1.95,7.48,9.5,10.64,11.57,3.19L900.07,528.4c2.07-7.47-9.32-10.56-11.57-3.19l-45.37,148c-2.31,7.53,8.82,10.22,11.57,3.19a771.41,771.41,0,0,0,45.4-172.09c.88-6.17-7.48-11.18-11-4.62L825.3,619.63l11,4.62a421.24,421.24,0,0,1,31.23-84.18l-11-4.63q-8.67,59.92-23.18,118.78c-1.85,7.53,9.2,10.52,11.58,3.19l53.34-164.58c2.39-7.38-9.13-10.48-11.57-3.19Q856.55,579.58,822.18,668l11.57,3.19,63.44-212.69-11.57-3.19a950.12,950.12,0,0,1-56.28,167.11l11,1.44a360.86,360.86,0,0,1-18.29-120.66c.14-7.06-9.59-7.74-11.78-1.59a1077.92,1077.92,0,0,0-37.37,130.1l11.79,1.6,8.46-96.2c.59-6.81-10.14-8-11.79-1.6l-6,23.39-2.88,11.23L771,575.79l-.72,2.81c-.67,1.81.53,1.63,3.59-.52l3.59,2.76-1.78,5.64h-6.06l.5.28L767.4,580a1100.65,1100.65,0,0,1-31.48,105.65l11.57,3.19L783.28,573l-11.57-3.19L733.06,704.18c-1.83,6.36,8,10.89,11,4.62l66-139.36-11-4.62a767.22,767.22,0,0,1-33.37,112.45l11.57,3.19Q784,637.55,794,595.26c1.79-7.5-9.63-10.69-11.57-3.19Q765.86,656.36,745,719.44l11.58,3.19q17.85-63.89,40.26-126.37l-11.57-3.19a290.65,290.65,0,0,1-16.91,62.33l11-1.44L760,621.72c-2.52-4.19-7.71-3.52-10.36,0a185.28,185.28,0,0,0-27.34,52c-1.86,5.48,2,15.65,10,5.84a814.11,814.11,0,0,0,59-83l-11-4.62-25.53,86.44,11.58,3.19a556.68,556.68,0,0,0,14.52-84.25c.66-7-9.8-7.74-11.79-1.59L736.64,695.86c-2,6.19,5.78,9.36,10,5.84,47.34-39.21,80.88-91.55,113.52-142.9l-11-4.62a705.35,705.35,0,0,1-52.79,120.6l11.18,3A441,441,0,0,1,822.44,555.4l-11.57-3.19-30,116.41,11.58,3.19,18.67-75.65L799.53,593q-8.68,46.11-20.79,91.46c-2,7.5,9.25,10.54,11.57,3.19Q808,631.78,828.79,577l-11.57-3.19a873.38,873.38,0,0,1-32.7,115.85l11.58,3.19a1051.39,1051.39,0,0,1,35.45-118.61L820,571.07c-15.9,63.36-41.79,124-65.26,184.78L734,809.5c-2.53,6.55,7.49,10.16,11,4.63l97-154.61-11-4.63a1210.55,1210.55,0,0,1-49.81,153.53l11.58,3.19q24.13-69.33,52.72-137l-11-4.62q-6.75,33.36-16.79,65.91c-2,6.39,7.92,10.79,11,4.62a1365.92,1365.92,0,0,1,69.35-124l-10.36-6L811.41,778l11,4.63A991.2,991.2,0,0,1,878.9,658.25l-11-4.63Q846,717.87,818.68,780.09l11,4.62a841.9,841.9,0,0,1,62-129.54l-11-4.62-41.41,110.6c-2.71,7.26,8.84,10.32,11.58,3.19l53-138.3-11.57-3.19L850.7,734l11.57,3.19,21.1-90c1.49-6.36-7.75-10.91-11-4.62a997,997,0,0,1-56.21,96.07l11.18,3a302.73,302.73,0,0,1,14.41-85.16l-11.57-3.19q-8.25,38-19.76,75.06c-2.29,7.39,9.27,10.54,11.57,3.19a624.74,624.74,0,0,1,30.1-77.72l-11-4.63A830,830,0,0,1,813,729.9c-2.54,6.24,8.21,10.83,11,4.62l39.37-88.7L853,639.77,803.1,756.05l11,4.63a671.46,671.46,0,0,0,8.36-84.55c.21-6.14-8.16-7.91-11.18-3a569.94,569.94,0,0,0-42.2,82.6l11.57,3.19a831.61,831.61,0,0,1,29-87.28L798,668.42l-24,67,11.57,3.19,8.25-61.1c1-7.46-9-10.74-11.57-3.19l-16.37,49,11.57,3.19,18.85-71.77c1.66-6.34-8-11-11-4.62l-31.55,67,11.18,3a194.94,194.94,0,0,1,9.23-57.91l-11.57-3.19q-13,43.55-29.12,86l11.79,1.6a388.7,388.7,0,0,1,5.36-54.47c1-6.1-8.09-11.39-11-4.63L699.35,782.3l11.18,3a498.33,498.33,0,0,1,3.07-102.14c.94-7-9.78-7.67-11.78-1.59a514.85,514.85,0,0,0-20.73,88.34c-.88,6.14,7.54,11.23,11,4.62l41.13-79.27-11-4.63a269.39,269.39,0,0,1-18.54,62.17l11,1.43a222.78,222.78,0,0,1-10.74-54.58c-.44-6.48-10-8.48-11.79-1.6L673,773.81c-1.65,6.48,7.56,10.67,11,4.62l40.56-72.06-11.18-3a111.62,111.62,0,0,1-9.25,52l11.19,3a602.82,602.82,0,0,1,6.32-87.5c1.09-7.43-9.85-10.91-11.57-3.19l-18.7,83.62c-1.68,7.51,9.56,10.69,11.57,3.19l23.9-89.37L715.14,662q-7.68,30.22-18.33,59.56l11.57,3.19,19.11-56.18L715.7,667a308.16,308.16,0,0,1-12.4,56.56l11.79,1.59a319.9,319.9,0,0,1,7.47-48.85c1.74-7.52-9.28-10.58-11.57-3.19Q697.3,717.24,680.5,760.3l11.57,3.19A485,485,0,0,1,712.8,708.9l-11-4.63A396.46,396.46,0,0,1,677.59,778l11,4.62,22.62-80.23c1.79-6.33-8.17-11-11-4.62q-16.69,38.09-29.65,77.62c-2.07,6.36,8.13,10.88,11,4.63Q709.37,718.87,734,656.3c2.85-7.24-8.67-10.19-11.57-3.19A925.94,925.94,0,0,1,673,754.47h10.36a33.2,33.2,0,0,1-1.26-22.3c1.76-6.34-8.13-11-11-4.62l-19.62,44c-3.08,6.9,6.75,13,10.36,6.06L712,680.51l-11.18-3a289.09,289.09,0,0,1-24.5,91.08l11,4.62a674.54,674.54,0,0,1,20.89-74.36c2.29-6.67-7.41-10.13-11-4.62l-55.59,86.06,11.18,3a187.24,187.24,0,0,1,6.2-61.84c1.73-6.33-8.2-11-11-4.63a994.29,994.29,0,0,1-61.88,120.11H596.5a100,100,0,0,1-6.31-61.52c1.18-5.48-5.77-10.58-10-5.84l-13.6,15.13c-5.27,5.88,2.53,13.22,8.48,8.49a382.81,382.81,0,0,1,86.19-51.45l-6.06-10.36-99.12,48.54,6,10.36L656,743.9l-7.27-9.43a206.92,206.92,0,0,1-66.18,49.79q-4.87,2.32-9.89,4.36c-2.81,1.14-6.61,1.87-9.14,3.53-3.09,2-3.37,5.91-4.18,9.24q-1.49,6.14-2.74,12.33a366.76,366.76,0,0,0-6.51,48.73c-.4,5.94,8.47,8.18,11.18,3a337.2,337.2,0,0,0,32.49-91.17L582,772.68l-11.75,92.7L582,863.82a447,447,0,0,1-19.75-66.73c-1.41-6.6-12-5.15-11.79,1.6L554,890.57c.29,7.74,11.58,7.71,12,0a1031.36,1031.36,0,0,1,15.2-129.82l-11.79-1.59q-2.19,65.1-7.33,130.06h12l-3.6-127.1c-.22-7.77-11.53-7.68-12,0l-11.54,187c-.41,6.7,10.41,8.24,11.79,1.6l28-134.84H575.13a313.66,313.66,0,0,1,1.07,88.31c-.85,6.64,10.82,8.28,11.78,1.59l19.87-137.89-11.57-3.19q-12.6,89.43-28.57,178.3l11.78,1.6q3.06-68.16,10.82-136h-12Q573.84,858.93,567,909l11.79,1.6a631.53,631.53,0,0,1,13.43-105.47l-11.78-1.6a814.51,814.51,0,0,1-3.54,113.92h12a1470.56,1470.56,0,0,1,26.58-195.34l-11.79-1.6q.73,67.35-4.65,134.54c-.55,6.78,10.2,8.1,11.78,1.6l18.82-77.16-11.57-3.19L603,863.62l11.57,3.19,11-73.22c1.12-7.44-9.9-10.89-11.57-3.19l-17.82,82,11.57,3.19,11.8-76.11L608,796.33,591.4,909.78c-1.09,7.47,9.14,10.74,11.57,3.19l38.68-120.16c2.38-7.38-9.14-10.49-11.57-3.19q-24,72.2-54.1,142.19c-2.56,6,4.15,12.31,9.42,7.27q53.34-51,110.8-97.43l-8.48-8.49a513.23,513.23,0,0,1-64.68,52l8.81,6.77A282.71,282.71,0,0,1,648,857.7a6.07,6.07,0,0,0-6.77-8.81c-11.78,2.78-23.52,5.91-35.37,8.35a6.53,6.53,0,0,1-2.43.44c-1.71-.46-.66.06-1.23-1.42-.87-2.3-.31-5.84-.24-8.29a77.14,77.14,0,0,1,3-19c2.14-7.54-8.93-10.32-11.57-3.19q-16.59,44.81-33.17,89.6l11.57,3.19A253.1,253.1,0,0,1,613,827.43l-11.18-3a518.43,518.43,0,0,1-8.1,75.38c-1.13,6.22,7.74,11.15,11,4.62L671.36,770l-11-4.62q-17,62.52-37.24,124.11c-2.46,7.5,8.74,10.15,11.57,3.19L684.94,769l-11.57-3.19a465.07,465.07,0,0,1-39.55,97.65l11,4.62,37.29-111.14c2.49-7.43-8.83-10.26-11.57-3.19Q646.94,814.5,619,873.41L630,878A1112.12,1112.12,0,0,1,697.2,733l-11-4.62L628.65,883.59c-2.58,7,7.21,9.51,11,4.63A681.74,681.74,0,0,0,698,798.51c3.78-7-5.84-12.11-10.36-6q-40.33,54-83.3,106c-4.83,5.85,3,14.17,8.48,8.49q41-42.82,79.92-87.5c5-5.77-2.91-14-8.49-8.49a971.41,971.41,0,0,0-90,101.76c-3.83,5,3.41,11,8.21,8.21a1041.11,1041.11,0,0,0,143-100.19c6-5-2.53-13.17-8.49-8.48L633.81,893.44l8.48,8.48q26.43-31.59,54.64-61.6l-9.43-7.27-42,54.86c-4.38,5.71,4.6,11.41,9.43,7.27l80.76-69.38-9.42-7.27a899.94,899.94,0,0,1-69.6,90.76l8.49,8.49q35.34-44.7,74.31-86.33L730,824.17l-68.48,94c-4,5.55,4.79,12.13,9.43,7.27l110.72-116L773.2,801l-50.51,62.86c-4.76,5.92,3.45,14.44,8.48,8.48l71.76-84.9c4.91-5.82-3-14.13-8.49-8.49q-57,59.19-119.33,113l8.49,8.49L768,794.59c4.69-5.88-3-14.2-8.49-8.48L652.91,897.59l9.43,7.27A1045.85,1045.85,0,0,1,738,800.53c4.83-5.86-3.24-14.3-8.49-8.48L646.4,884.24l8.48,8.49L772.56,761.66c5.28-5.87-2.53-13.21-8.48-8.48l-79.84,63.43,10,5.84a303.08,303.08,0,0,1,64.32-96.59l-9.42-7.27A703.46,703.46,0,0,1,688.39,820l11,4.62q7-26.39,12.86-53.07c1.23-5.64-5.67-10.32-10-5.84a384.71,384.71,0,0,0-44.74,55.54c-3.73,5.62,4.93,12.44,9.42,7.27l77.65-89.42L733.19,728c-9.77,12.5-17.51,27-28.81,38.1l9.42,7.28,23.85-52.32c3.14-6.9-6.66-13-10.36-6.06q-28.14,52.71-58.75,104.05c-4,6.66,6.31,12.62,10.36,6.06A491.72,491.72,0,0,1,759.77,726l-9.43-7.27q-33.57,58-72,112.88c-3.89,5.55,4.93,12.38,9.42,7.27l113-128.72c5.06-5.76-3.13-14.14-8.48-8.48L663.4,837.81c-5.31,5.6,3,14,8.48,8.48q68.54-68.77,139.33-135.24l-9.42-7.27a994.42,994.42,0,0,1-97.14,126.45l8.48,8.49a964.19,964.19,0,0,1,71.73-75.3l-9.42-7.27q-44.28,57.35-91.7,112.15l9.42,7.27a955.32,955.32,0,0,1,111-150.83l-9.43-7.27L686,893.55c-4.17,6.76,5.83,12,10.37,6.06l68.89-90.43-10.36-6.06-28.78,59.19c-3.43,7.06,5.78,12.18,10.36,6.06l99.13-132.49-10.36-6a999.8,999.8,0,0,1-79.84,113.54l10,5.84a717.54,717.54,0,0,1,54.7-110.67l-10.36-6.06a895.69,895.69,0,0,1-56.85,83l11,4.63A347.19,347.19,0,0,1,794,739.28l-10.37-6.06q-37.07,73.95-77.25,146.27c-3.79,6.82,6.06,12.4,10.36,6.06q24.3-35.84,49.42-71.12,12.42-17.43,25-34.73,6.3-8.64,12.67-17.26,3.18-4.31,6.37-8.6a29.62,29.62,0,0,1,3.15-3.91l.9-.8c1-.62,1.11-.7.39-.25L812,742.1q-22.71,56.35-50.73,110.35l10.36,6q33-68.87,72-134.69l-10.36-6.06q-23.67,47.71-50,94l11,4.62a843.65,843.65,0,0,1,33.64-98.18c2.68-6.48-7.5-10.14-11-4.62a806.77,806.77,0,0,0-49.6,91.66c-3.19,6.93,6.93,13,10.36,6.06l45-91.79-10.37-6a420.29,420.29,0,0,1-25.61,48.85l11.18,3a144.18,144.18,0,0,1,3.18-23c.83-3.68,1.43-5.27,3.88-8.1s4.79-5.58,7.14-8.4c8.94-10.75,17.53-22,24.08-34.36,14.62-27.67,14.75-59.62,17.39-90.11l8.68-100.25c2.6-30.05,5.08-60.43,14.25-89.33,2.4-7.57,5-15.63,9.1-22.44s11.34-7.7,18.57-8.33c12.78-1.11,27.68-3.7,32.06-17.77,1.07-3.42-1.92-8-5.78-7.6-70.39,7.7-126.55,53.91-190.5,79.63-7.06,2.84-4,14.41,3.19,11.57a1343,1343,0,0,1,185.41-57.84q26.91-6.3,54.06-11.47l-3.19-11.57a952.93,952.93,0,0,1-172.6,52.66l3.19,11.57a241.36,241.36,0,0,1,74.14-10.93l-1.59-11.78q-80.37,19.26-161.78,33.64c-7.59,1.34-4.37,12.91,3.19,11.57Q805.27,438.26,885.67,419c6.65-1.6,5.1-11.73-1.6-11.79a252.72,252.72,0,0,0-77.33,11.36c-7.41,2.31-4.35,13.11,3.19,11.57a951.1,951.1,0,0,0,172.6-52.66c7-2.9,4.56-13.05-3.19-11.57A1344.21,1344.21,0,0,0,791.7,416q-26.12,9.06-51.83,19.18l3.19,11.57c62.46-25.12,118.67-71.7,187.31-79.2L924.58,360c-3.36,10.78-22.14,8.52-30.62,10.27-14.92,3.07-20.58,15-25.57,28.1-10.71,28.08-14.22,58.29-16.93,88-3,33-5.74,66-8.59,99-1.43,16.42-2.78,32.85-4.28,49.27-1.39,15.25-3.49,30.6-9.9,44.67C822,694,812.21,707,801.9,719.23q-3.82,4.5-7.72,9c-2.93,3.38-3.78,6.5-4.75,10.84a165.15,165.15,0,0,0-3.62,26.28c-.37,6.16,8.23,7.86,11.18,3a422,422,0,0,0,25.62-48.86c3.07-6.92-6.92-13.08-10.37-6l-45,91.78,10.36,6.06a809.2,809.2,0,0,1,49.6-91.66l-11-4.63a843.65,843.65,0,0,0-33.64,98.18c-1.8,6.51,7.57,10.59,11,4.62q26.33-46.29,50-94c3.41-6.87-6.39-12.77-10.36-6.06q-38.87,65.76-72,134.7c-3.31,6.89,6.78,13,10.36,6q28.66-55.34,51.94-113.21c1.07-2.66-.8-5.28-2.76-6.78-11.89-9.08-23.67,13-29,20.23q-14.73,20-29.19,40.13-28.54,40-56.14,80.64l10.36,6.06Q757,813.24,794,739.28c3.46-6.92-6.06-12.5-10.37-6.06A359.42,359.42,0,0,0,742.33,817c-2.4,7,7.17,9.54,11,4.62a895.09,895.09,0,0,0,56.85-83c4-6.63-6.36-12.66-10.36-6.06a734.37,734.37,0,0,0-56,113.49c-2.14,5.48,6.32,10.39,10,5.83a1023.14,1023.14,0,0,0,81.71-116c4.1-6.77-5.85-12.07-10.36-6l-99.1,132.48,10.36,6.06,28.78-59.19c3.45-7.09-5.74-12.12-10.36-6.06L686,893.55l10.37,6.06L805.05,723.53c3.53-5.72-4.81-12.4-9.42-7.27A970.78,970.78,0,0,0,682.8,869.52c-3.4,5.71,4.87,12.53,9.42,7.27q48.39-56,93.58-114.58c4.29-5.56-4.66-11.76-9.42-7.27a960.43,960.43,0,0,0-71.73,75.29c-5,5.81,3.26,14.26,8.48,8.49a1013.58,1013.58,0,0,0,99-128.89c3.81-5.87-4.58-11.82-9.42-7.27Q732,769,663.4,837.81l8.48,8.48L800.76,710.18l-8.48-8.48-113,128.71,9.43,7.28q38.38-54.88,72-112.88c3.45-6-4.49-11.93-9.43-7.27a504.31,504.31,0,0,0-82.72,101.55l10.36,6.06q30.62-51.33,58.75-104L727.31,715l-23.85,52.32c-2.69,5.92,4.27,12.35,9.43,7.27a367.07,367.07,0,0,0,31.62-35.5c4.63-5.93-3.33-14.43-8.49-8.48L658.38,820l9.42,7.28a367.21,367.21,0,0,1,42.86-53.11l-10-5.84Q694.83,795,687.8,821.42c-1.83,6.9,7.13,10,11,4.62a703.3,703.3,0,0,0,60.78-101.43c2.89-5.89-4.41-12.36-9.43-7.27a318.09,318.09,0,0,0-67.4,101.88c-2.58,6.23,6,9,10,5.84l79.83-63.44-8.48-8.48L646.4,884.24c-5.15,5.73,3.3,14.24,8.48,8.49L738,800.53l-8.49-8.48A1071.19,1071.19,0,0,0,652,898.8c-3.66,5.76,4.71,12.2,9.42,7.28L768,794.59l-8.49-8.48-84.4,105.8c-4.76,6,2.54,13.63,8.49,8.49q62.21-53.76,119.33-113l-8.49-8.49-71.75,84.91,8.48,8.48,50.51-62.85c4.73-5.88-3-14.2-8.48-8.49L662.47,917l9.43,7.27,68.47-94c4-5.53-4.82-12.19-9.42-7.27q-38.94,41.6-74.32,86.33c-4.68,5.92,3.31,14.41,8.49,8.49a924.43,924.43,0,0,0,71.47-93.19c4-6-4.53-11.48-9.43-7.27L646.4,886.69l9.42,7.27,42-54.86c4.17-5.43-4.82-12.16-9.42-7.27q-28.2,30-54.63,61.61c-5,6,2.45,13.23,8.48,8.48l103.18-81.13L737,812.31a1021.54,1021.54,0,0,1-140.66,98.26l8.21,8.21a948.69,948.69,0,0,1,88.16-99.33L684.2,811q-38.93,44.67-79.91,87.5l8.48,8.49Q656.71,853.79,698,798.51l-10.36-6a682.22,682.22,0,0,1-58.34,89.7l11,4.62,57.51-155.27c2.38-6.43-7.72-10.5-11-4.63a1136,1136,0,0,0-68.44,148c-2.39,6.31,8.06,10.76,11,4.62Q658,819.27,682.14,757l-11.57-3.19-37.36,111c-2.16,6.46,7.73,10.57,11,4.63A480.07,480.07,0,0,0,684.94,769c2.13-7.64-8.74-10.15-11.57-3.19L623.1,889.42l11.57,3.19q20.24-61.56,37.24-124.11c1.74-6.39-7.87-10.87-11-4.63l-66.6,134.47,11,4.63a542.62,542.62,0,0,0,8.52-78.57c.22-6.42-8-7.52-11.18-3a261.79,261.79,0,0,0-42.32,94c-1.75,7.63,8.91,10.37,11.57,3.19Q588.44,873.77,605,829l-11.57-3.19a88.61,88.61,0,0,0-3.51,26c.13,6.64,1,14.36,8.09,17.05,6.38,2.4,14-.72,20.32-2.2l26.06-6.16-6.78-8.81a304.79,304.79,0,0,0-17.37,37.06c-1.89,4.84,4.66,9.59,8.81,6.78a532.85,532.85,0,0,0,67.11-53.84c5.73-5.42-2.61-13.24-8.48-8.49q-57.42,46.38-110.8,97.43l9.42,7.27q30.71-71.32,55.31-145L630,789.66,591.4,909.78,603,913l16.59-113.45c1.1-7.53-10.39-10.84-11.57-3.19l-11.8,76.11c-1.16,7.45,9.9,10.88,11.57,3.19l20.57-77L614,790.4l-11,73.22c-1.13,7.5,10.24,10.86,11.57,3.19l15.09-87.37C631,772,620,768.62,618.1,776.25l-18.82,77.16L611.07,855q5.38-67.12,4.65-134.54c-.07-6.56-10.39-8.41-11.78-1.59a1494.76,1494.76,0,0,0-27,198.53c-.53,7.78,11.23,7.56,12,0a814.51,814.51,0,0,0,3.54-113.92c-.26-6.48-10.31-8.48-11.79-1.59a651.68,651.68,0,0,0-13.86,108.66c-.29,6.61,10.85,8.37,11.78,1.59q7.07-51.6,11.71-103.49c.69-7.76-11.14-7.54-12,0q-7.77,67.79-10.82,136c-.29,6.64,10.58,8.32,11.79,1.59q16-88.89,28.57-178.34c.46-3.23-.79-6.4-4.19-7.38-2.81-.81-6.92,1-7.38,4.19L576.41,902.59l11.79,1.6a324.3,324.3,0,0,0-1.5-91.5c-.92-5.87-10.41-5.57-11.57,0l-28,134.84,11.78,1.59,11.54-187h-12l3.6,127.1c.22,7.8,11.4,7.63,12,0q5.13-64.94,7.33-130.06c.23-6.63-10.56-8.34-11.78-1.6a1055.61,1055.61,0,0,0-15.63,133h12l-3.49-91.88-11.79,1.59A448.09,448.09,0,0,0,570.41,867c2.5,6.54,10.93,5.15,11.78-1.6l11.75-92.7c.85-6.67-10.47-8.19-11.78-1.59a326.15,326.15,0,0,1-31.28,88.31l11.18,3A349.16,349.16,0,0,1,572.3,798.9l-4.19,4.19A218,218,0,0,0,657.18,743a6,6,0,0,0-7.27-9.42L556.08,780c-6.93,3.42-.86,13.74,6,10.36l99.13-48.54c7-3.44.87-13.36-6.06-10.36a393.76,393.76,0,0,0-88.61,53.32l8.48,8.49,13.58-15.14-10-5.83A113.73,113.73,0,0,0,586.14,843c1.91,4.29,8.23,3.52,10.36,0a992,992,0,0,0,61.88-120.1l-11-4.62a197.71,197.71,0,0,0-6.61,65,6.05,6.05,0,0,0,11.18,3l55.59-86.06-11-4.62A674.83,674.83,0,0,0,675.73,770c-1.38,6.26,8,11.13,11,4.63a306.76,306.76,0,0,0,26.14-97.14c.59-6-8.54-8.13-11.18-3l-50.21,97.07,10.36,6.06,19.63-44-11-4.62a46.43,46.43,0,0,0,2.47,31.55c1.83,4.23,8.33,3.58,10.36,0A951.15,951.15,0,0,0,734,656.3l-11.57-3.19q-24,61.1-51.24,120.87l11,4.62q12.39-38,28.44-74.75l-11-4.63L677,779.45c-1.79,6.35,8.15,11,11,4.63a411.65,411.65,0,0,0,25.44-76.62c1.41-6.26-8-11.12-11-4.62a512.15,512.15,0,0,0-21.93,57.44c-2.35,7.51,8.83,10.23,11.57,3.19q16.8-43,30.49-87.19L711,673.09a340.63,340.63,0,0,0-7.9,52c-.52,7,9.81,7.81,11.78,1.6A324.56,324.56,0,0,0,727.7,667c.85-7-9.73-7.64-11.79-1.6l-19.1,56.18c-2.51,7.36,9,10.37,11.57,3.19q10.64-29.31,18.34-59.56c1.9-7.48-9.58-10.66-11.58-3.19l-23.89,89.37,11.57,3.19L721.52,671,710,667.75a624.3,624.3,0,0,0-6.75,90.69c0,5.56,8.65,8.69,11.18,3a124.68,124.68,0,0,0,10.88-58.09c-.33-5.71-8.12-8.47-11.18-3l-40.56,72,11,4.63,19.19-75.76L692,699.63a235.46,235.46,0,0,0,11.17,57.77c1.44,4.38,8.74,6.51,11,1.43a280.84,280.84,0,0,0,19.75-65c1.08-6.23-7.6-11.11-11-4.62L681.7,768.5l11,4.63a514.85,514.85,0,0,1,20.73-88.34l-11.79-1.6a498.33,498.33,0,0,0-3.07,102.14c.38,5.24,8.62,9,11.18,3L750,693.7l-11-4.62a413,413,0,0,0-5.79,57.66c-.21,7.17,9.5,7.59,11.78,1.59q16.15-42.45,29.12-86c2.21-7.43-9.24-10.52-11.57-3.19a206.68,206.68,0,0,0-9.66,61.1c0,5.64,8.57,8.58,11.19,3l31.54-67-11-4.63-18.85,71.77c-2,7.52,9.14,10.47,11.57,3.19l16.37-49-11.57-3.19-8.13,61c-1,7.51,8.89,10.64,11.57,3.19l24.06-67c2.64-7.35-8.79-10.25-11.57-3.19a831.61,831.61,0,0,0-29,87.28c-2.08,7.67,8.71,10.12,11.57,3.19a552.65,552.65,0,0,1,41-79.74l-11.18-3a648.93,648.93,0,0,1-7.93,81.36c-1,6.06,8,11.41,11,4.62l49.9-116.29c3-7-7.22-13.14-10.36-6.05l-39.37,88.7,11,4.62a833.07,833.07,0,0,0,28.12-80.67c1.86-6.36-8-10.9-11-4.62a649.48,649.48,0,0,0-31.3,80.59L822,731.58q11.5-37.1,19.76-75.06c1.64-7.54-9.21-10.57-11.57-3.19a314.91,314.91,0,0,0-14.84,88.35c-.15,6.24,8,7.77,11.18,3a997.13,997.13,0,0,0,56.21-96.08l-11-4.62-21.1,90c-1.79,7.62,8.89,10.34,11.57,3.19L903.87,626c2.72-7.26-8.83-10.32-11.57-3.19l-53,138.3,11.58,3.19,41.4-110.6c2.43-6.49-7.6-10.35-11-4.63a861.68,861.68,0,0,0-63.19,132.41c-2.38,6.3,8.22,10.85,11,4.62q28-63.57,50.42-129.36c2.2-6.44-7.75-10.58-11-4.62a1013,1013,0,0,0-57.7,127.25c-2.35,6.31,8.15,10.81,11,4.62L898.12,616.5c3.16-6.92-6.16-12.71-10.36-6a1363.51,1363.51,0,0,0-69.35,124l11,4.62q10-32.52,16.79-65.91c1.25-6.19-8.15-11.27-11-4.63q-29.22,69-53.94,139.86c-2.58,7.41,8.77,10.2,11.58,3.19a1212.1,1212.1,0,0,0,49.8-153.53c1.67-6.63-7.34-10.4-11-4.62l-97,154.59,11,4.62,36.06-93.42c11.72-30.38,23.69-60.69,34.08-91.56,5.93-17.62,11.3-35.42,15.83-53.45,1.9-7.59-9-10.37-11.57-3.19a1051.44,1051.44,0,0,0-35.46,118.61c-1.79,7.59,9,10.4,11.58,3.19A873.5,873.5,0,0,0,828.79,577c1.6-7.65-8.84-10.36-11.57-3.19q-20.84,54.74-38.48,110.6l11.57,3.19q12.11-45.33,20.8-91.46c1.41-7.49-9.7-10.78-11.58-3.19L780.86,668.6c-1.84,7.5,9.64,10.68,11.58,3.19l30.07-116.38c1.93-7.48-9.58-10.65-11.57-3.19a453.2,453.2,0,0,0-15.32,125.57c.11,5.8,8.23,8.35,11.18,3a721.8,721.8,0,0,0,54-123.47c2.2-6.66-7.43-10.2-11-4.63-32.14,50.56-65,101.87-111.65,140.48l12.44,12.72,30.08-107-11.78-1.6a534,534,0,0,1-14.1,81.06c-1.9,7.49,9.39,10.6,11.58,3.19l25.52-86.44c2-6.63-7.42-10.33-11-4.62a791.17,791.17,0,0,1-57.13,80.62l10,5.83A175.53,175.53,0,0,1,760,627.77H749.6L769,660c2.87,4.76,9.14,3.21,11-1.43a290.07,290.07,0,0,0,16.91-62.33c1.17-7.55-8.92-10.58-11.57-3.19Q763,655.53,745.08,719.44c-2.09,7.49,9.17,10.49,11.58,3.19q20.8-63,37.42-127.37l-11.57-3.19q-10,42.26-16.77,85.2c-1.19,7.61,8.79,10.48,11.57,3.19A767.34,767.34,0,0,0,810.68,568c1.35-6.27-7.9-11.1-11-4.63l-66,139.36,11,4.63L783.28,573c2.14-7.45-9.3-10.55-11.57-3.19l-35.79,115.8c-2.31,7.45,9,10.39,11.57,3.19A1100.43,1100.43,0,0,0,779,583.17a6.14,6.14,0,0,0-2.75-6.78c-5.76-3.24-11.88,2.43-10,8.55,2,6.57,10.17,6.24,13.68,1.3,1.89-2.65,2.42-6,3.21-9.13L786.21,565l6.72-26.2-11.78-1.59-8.46,96.2c-.59,6.73,10.34,8.16,11.78,1.59a1077.92,1077.92,0,0,1,37.37-130.1l-11.79-1.6a370.94,370.94,0,0,0,18.72,123.8c1.46,4.39,8.72,6.5,11,1.43a966.76,966.76,0,0,0,57.49-170c1.78-7.51-9.36-10.61-11.57-3.19L822.22,668.05c-2.25,7.54,8.83,10.23,11.57,3.19q34.37-88.43,64.52-178.4l-11.57-3.19L833.39,654.23,845,657.42q14.49-58.78,23.17-118.78c.88-6.1-7.64-11.29-11-4.62a435.41,435.41,0,0,0-32.44,87.05c-1.64,6.43,7.68,10.79,11,4.63l63.8-120-11-4.62a771.41,771.41,0,0,1-45.4,172.09l11.57,3.19,45.37-148-11.57-3.19L841.91,693l11.57,3.19,36.34-139.34c1.95-7.48-9.36-10.58-11.57-3.19A488.45,488.45,0,0,0,858.52,669.1c-.35,7.27,9.47,7.45,11.79,1.6q42.27-106.49,76.57-215.89c2.32-7.41-9.13-10.46-11.58-3.19q-20,59.33-44.23,117.06l11.57,3.19,38.2-113.24-11.57-3.19a1303.76,1303.76,0,0,1-37.95,126.28l11.57,3.19,31.76-100.53c2-6.44-7.76-10.65-11-4.62q-26.62,50.1-50,101.81l11,4.63,41.69-123.52-11.58-3.19a831.68,831.68,0,0,1-47.62,138.25l11,4.63,58.55-173.14c2.29-6.78-7.31-10-11-4.62q-25.08,36.56-51.07,72.49-12.86,17.76-25.93,35.36c-7,9.39-14.32,20.78-25.78,25.08l7.38,7.38L898,390.79l-11.57-3.19a1336.38,1336.38,0,0,1-76.8,200.14l11,4.63,55.8-161.23c2.22-6.41-7.82-10.64-11-4.63a964.55,964.55,0,0,0-55.7,128.88c-2.2,6.33,8.27,10.9,11,4.62a1451.73,1451.73,0,0,0,56.6-154.74c2.27-7.51-8.89-10.29-11.57-3.19a1521.66,1521.66,0,0,1-84.82,186l11,4.63,73.3-191.87c2.54-6.65-7.4-10-11-4.62-31.71,47.73-57,99.21-82.21,150.57l11,4.63q24.68-63.9,44.25-129.6c1.9-6.37-8-10.87-11-4.62L752.51,551.9l10.36,6.1q32.31-76.11,71.41-149.09l-11-4.63L794.79,582.52c-1,6.42,7.19,10.78,11,4.62a1404,1404,0,0,0,87.63-167.56l-11-4.62A1780.5,1780.5,0,0,1,834,593.4c-2.45,7.46,8.81,10.22,11.58,3.19q42-106.89,74.53-217.15l-11.57-3.19c-20.91,73-41.85,146.19-68.46,217.4q-11.46,30.66-24.43,60.71l11,4.62c23.8-74.4,47.6-148.8,69.8-223.69q9.42-31.76,18.41-63.63c1.81-6.41-7.8-10.77-11-4.62A1049,1049,0,0,0,829.8,551.87q-8.09,27.5-14.61,55.42c-1.81,7.69,8.75,10.22,11.57,3.19q39-97.31,72.29-196.77,9.56-28.53,18.61-57.23c2.39-7.55-8.72-10.13-11.57-3.19Q863.51,457.08,823.31,561.8c-2.41,6.28,8.3,10.88,11,4.62l53.38-125.59-11-4.63q-19.8,65.21-43.29,129.19c-2.68,7.31,8.8,10.27,11.58,3.19a1339.33,1339.33,0,0,0,46.53-141.52c2-7.47-9.55-10.65-11.58-3.19L830.45,606c-2.09,7.7,8.67,10.08,11.57,3.19L921.26,421.4l-11.58-3.19Q884.5,535.56,850,650.6c-1.9,6.34,8.23,11,11,4.62a1825.12,1825.12,0,0,0,81.57-230.46c1.77-6.35-8.07-10.95-11-4.62Q884.86,522,844.89,626.82c-2.43,6.37,7.81,10.58,11,4.62L917,515.81l-11.19-3L903.69,598c-.17,6.87,9.88,8,11.79,1.59a850.45,850.45,0,0,0,22.95-96.94c2.77-15.83,5.28-31.77,6.94-47.76,1.58-15.23,1.66-30.8-3.43-45.42-2-5.85-9.41-5.51-11.57,0L888.48,516.32l11.58,3.19A832.32,832.32,0,0,0,926.17,378c.58-6.08-8.42-8-11.18-3q-49,87.45-90.69,178.74l11,4.62c22.36-53.28,44.7-106.76,59.63-162.72,1.84-6.93-7.11-9.9-11-4.62l-57,66-20.7,40.3L793.4,514.89c-2.14,2.93-4.26,5.88-6.42,8.79-1.06,1.44-4.07,6.39-6.31,6l4.19,7.38a475.31,475.31,0,0,0,8.28-94.33c-.08-6.16-7.94-7.89-11.18-3A1118.1,1118.1,0,0,0,717.8,549.15l10.37,6.06,34.3-71.82c9.88-20.66,18.36-44.65,35.41-60.65l-10-5.84a837.63,837.63,0,0,0-25.47,123.24c-.8,6.19,8.4,7.76,11.18,3a775.82,775.82,0,0,0,58-121.78c2.74-7.31-8.71-10.2-11.57-3.19q-31.17,76.47-64.08,152.23c-3,7,7.14,13.13,10.36,6.06q43.8-96.39,80.82-195.65c2.55-6.86-7.26-9.67-11-4.63A750.14,750.14,0,0,0,739.59,554c-2.61,6.86,7.25,9.63,11,4.62L829.11,452.7l-11-4.62c-22.29,69.68-52.34,136.46-82.42,203.05-3.11,6.89,6.55,13,10.36,6.06l103-186.1-11.18-3c-7.27,70.89-35.61,140.7-21.79,212.64,1.07,5.56,8.25,5.22,11,1.43A1096.31,1096.31,0,0,0,938.82,487l-11-4.62c-14,57.47-28,115.45-53,169.33l11,4.62,28.47-128.65c1.68-7.57-9.09-10.51-11.57-3.19-21.87,64.57-43.79,129.42-73.88,190.74q-12.69,25.86-27.41,50.67l11,4.62L833,680.77l10.19-44.39c3.24-14.1,6.33-28,3.94-42.51-.87-5.29-8.54-5.56-11-1.43q-30.84,52.41-63.46,103.74-16.06,25.26-32.55,50.22Q731.6,759.3,723,772.1c-3.2,4.75-9.77,18.41-17.14,16.13l4.19,7.38a1728.77,1728.77,0,0,0,50.05-190.22c1.29-6.33-7.63-11-11-4.63A1100.55,1100.55,0,0,0,672.86,785c-2.08,6.67,7.39,10.21,11,4.62a669.5,669.5,0,0,0,62.39-124.54c2.37-6.29-8.21-10.84-11-4.62C708.08,721.75,680.66,783.37,642.9,839l10.36,6.06A1810,1810,0,0,1,773,666.41l-11.18-3a844,844,0,0,1-12.63,215.21c-1.19,6.25,7.71,11.1,11,4.62Q784.42,835,804.34,784.7c12.82-32.35,27.76-66.88,25.25-102.43-.34-4.79-6.55-8.42-10.25-4.24Q756,749.54,699,826.3q-16.37,22.07-32.18,44.52c-3.91,5.56,4.91,12.35,9.42,7.27C720,828.92,760.54,776,788.63,716.18c2.86-6.09-4.17-12-9.42-7.27L624,848.52l-43.8,39.41,9.43,7.27,74.57-116c3.51-5.46-3.19-10.58-8.21-8.21a571.88,571.88,0,0,0-88.39,51.82l7.27,9.42L694.49,736.4c5.12-4.11-.61-11-5.84-10-31.87,6.08-58.57,26.62-79.76,50.33-4.51,5.06,1.13,12.71,7.27,9.43a88.87,88.87,0,0,0,27.91-23.23c3.21-4.06.43-12.52-5.84-10l-81.94,32.64,5.83,10,16.38-13.9c3.86-3.28.82-10.65-4.24-10.24a370.24,370.24,0,0,0-57.41,9.09c-7.51,1.81-4.33,13.38,3.19,11.57Z"/><path class="cls-4" d="M813.45,665.74a7.5,7.5,0,0,1-2.61,4.1l8.81,6.78,5.6-14.54-11.57-3.19a209.33,209.33,0,0,1-26.25,60.57c-4.16,6.53,6.22,12.56,10.36,6.06a220.49,220.49,0,0,0,27.46-63.44c2-7.62-8.84-10.26-11.57-3.19l-5.6,14.54c-1.8,4.69,4.71,9.84,8.82,6.77a20.87,20.87,0,0,0,8.1-11.27c2.21-7.42-9.37-10.59-11.57-3.19Z"/><path class="cls-4" d="M853.54,410.59q-3.37,21.72-8,43.22L857.08,457q3.3-21.83,8.2-43.34l-11.78-1.6a188.07,188.07,0,0,1-9.6,42.41c-2.55,7.31,9,10.45,11.57,3.19a201.63,201.63,0,0,0,10-45.6c.7-6.74-10.3-8.12-11.79-1.59q-4.9,21.51-8.2,43.34c-1.12,7.44,9.9,10.89,11.57,3.19q4.65-21.5,8-43.22c1.17-7.56-10.39-10.81-11.57-3.19Z"/><path class="cls-4" d="M690.58,822.7a402.28,402.28,0,0,1-54.8,42.3l7.27,9.43c7.1-9,19.3-11.4,27.65-19,10.51-9.59,12.94-26.5,15.2-39.8,2.6-15.36,4.59-30.84,6.84-46.26q1.71-11.65,3.41-23.33c1-7,2.33-14.44-1.52-20.84-2.94-4.89-8.58-8.18-14.35-7.13-6.92,1.25-12.5,7.81-17.86,12a307.57,307.57,0,0,1-35,23.43q-9.07,5.24-18.49,9.87c-6.6,3.24-14,5.55-20.35,9.17-6.78,3.86-5,11.09-4.36,17.6l2.3,23.45c1.72,17.47,2.39,35.51,6.18,52.69,1.53,6.9,3.82,14.35,10.22,18.25,3.17,1.93,3.86,1.64,4.32,5.47a27.71,27.71,0,0,0,2.33,9.21c2.19,4.59,9.94,3.47,11-1.43l7.77-37.12c1.58-7.5-9.51-10.7-11.57-3.19L607,893.25l11.79,1.59A32.6,32.6,0,0,0,608,871.76c-2.79-2.49-7.48-2.34-9.43,1.21a282.92,282.92,0,0,0-19.52,44.48h11.57a143.06,143.06,0,0,1,2.22-52.81l-11.79-1.59q1.5,30.15.3,60.33c-.23,5.67,8.7,8.54,11.18,3a177.69,177.69,0,0,1,22.7-37.73l-10-5.84a197.56,197.56,0,0,1-8.06,30.91l11.57,3.19a120,120,0,0,1,16.13-32.8l-11.18-3a91.45,91.45,0,0,1-.17,24.12c-.94,6.34,7.23,10.91,11,4.62,8.56-14.41,25.45-21.07,39.1-29.57,16.84-10.5,32.53-22.72,48.2-34.85l-10.24-4.25a212.4,212.4,0,0,1,.25,26.22c-.34,6.6,7.93,7.26,11.18,3,16.56-21.52,33.31-43,53.23-61.55l-10-5.84A383.6,383.6,0,0,1,738,855.1c-3,6.91,6.23,12.84,10.36,6.06a485.44,485.44,0,0,1,35.22-50.53c3.82-4.79-1.34-13.9-7.27-9.42-19.26,14.56-41.23,28.33-65.77,17.84-22.64-9.68-35.28-32.57-42.65-54.89-1.48-4.48-2.65-9.48-6.7-12.37-5.61-4-11.43-.81-16.86,1.81q-19.62,9.4-39.23,18.86c-5.07,2.45-8.76,5.18-11,10.47a177.71,177.71,0,0,0-6.19,18.55,334.74,334.74,0,0,0-9,39.18c-4.69,27.51-7.72,58.31-28.92,78.77-5.58,5.39,2.84,13.74,8.48,8.49a126.71,126.71,0,0,1,32.41-21.83l-7.27-9.42a69,69,0,0,1-12.22,11.92l7.28,9.42c9.2-8.16,20.69-12.87,32.1-17.08,12.94-4.77,26-9.38,39-14l-5.84-10-18.45,15.44,8.48,8.49a193.81,193.81,0,0,1,66.19-37.55l-4.62-11-59.91,31.08,6,10.37A296.48,296.48,0,0,1,716,864.39l-5.84-10a396,396,0,0,1-68.94,44.3l7.27,9.42a240.61,240.61,0,0,1,43.15-38.53l-6.06-10.36a253.67,253.67,0,0,1-66.2,35.23l4.63,11c25.89-16.89,54.13-29.52,82.32-42l-6-10.36-63,36.91,6.06,10.36C696,860.3,749,819.81,791.72,768.9l-9.42-7.27A146.19,146.19,0,0,1,756,800.89a144.7,144.7,0,0,1-17,15.45c-2.46,1.89-6.66,6-10.12,5.54-2.93-.36-4.33-4.44-5.09-6.8-5.47-17.07-3.47-36.8-2.5-54.42,1-18.83,2.94-37.6,4.86-56.37.58-5.72-6.69-7.16-10.25-4.24l-29,23.83-13.73,11.29-7.62,6.27c-1.15.94-4.69,4.93-6.1,4.46l3.59,8.81A291.39,291.39,0,0,1,693.51,702c4.54-6.26-5.86-12.25-10.36-6.06a290.94,290.94,0,0,0-30.41,52.69c-1.63,3.64-.39,7.48,3.58,8.81,6.21,2.08,11-2,15.48-5.67l17.55-14.42,35.08-28.84-10.24-4.25c-1.75,17.15-3.5,34.3-4.58,51.5-1,16.5-2.16,33.5,0,49.93,1.58,11.84,6.48,30.85,22.47,27.85,6.92-1.3,12.74-6.52,18-10.84a149.54,149.54,0,0,0,15.43-14.56,155.79,155.79,0,0,0,27-40.53c2.61-5.68-4.69-12.91-9.42-7.27C741.12,810.49,689,850.5,637.25,890c-6,4.54-.81,14.39,6.06,10.36l63-36.91c6.82-4,.85-13.43-6-10.36-28.19,12.5-56.43,25.13-82.33,42-5.41,3.52-2.11,13.34,4.62,11a264.29,264.29,0,0,0,69.07-36.44c6.1-4.5.37-14.82-6.06-10.36A253.31,253.31,0,0,0,640,899.62a6,6,0,0,0,7.27,9.43,410.21,410.21,0,0,0,71.36-46.17c5-4-.48-11.35-5.83-10a308.8,308.8,0,0,0-77.19,30.57c-6.77,3.8-.78,13.91,6,10.37l59.92-31.09c6-3.1,1.86-13.11-4.63-11a209.1,209.1,0,0,0-71.48,40.63c-5.88,5.1,2.62,13.4,8.48,8.49l18.45-15.44c4.56-3.82-.31-12-5.83-10-14.06,5-28.14,9.87-42.09,15.13-12.38,4.68-24.29,10.15-34.28,19-5,4.45,1.76,13.52,7.27,9.42a79.78,79.78,0,0,0,14.64-13.8c4.31-5.3-.93-12.42-7.27-9.42A137.56,137.56,0,0,0,550,919.43l8.48,8.49c18.1-17.48,24.9-42.14,29-66.19,2.25-13.06,4.18-26.14,7.21-39q2.13-9.08,4.79-18c.88-3,1.81-5.94,2.78-8.9s1.61-6.88,3.42-9.45c1.56-2.22,4.85-3.2,7.25-4.35l8.92-4.29,19.62-9.43,9.81-4.72c3.26-1.57,3.17-2,4.27,1.4a188.8,188.8,0,0,0,6.82,18.16c9.26,21.08,24.49,39.78,46.49,48.14,27.25,10.35,52.1-3.46,73.52-19.66l-7.28-9.42a511.52,511.52,0,0,0-37.09,53l10.36,6.06a407.8,407.8,0,0,0,19.35-54.94c1.6-5.92-5.71-9.86-10-5.84-20.68,19.26-37.93,41.66-55.11,64l11.18,3a214.38,214.38,0,0,0-.25-26.22c-.4-5.55-6.12-7.43-10.25-4.24-16.34,12.66-32.77,25.3-50.55,35.89-14.31,8.52-29.81,16.12-38.63,31l11,4.63a102.38,102.38,0,0,0,.6-27.31c-.7-5.9-7.61-8.17-11.18-3a130.73,130.73,0,0,0-17.34,35.67c-2.32,7.43,9,10.41,11.57,3.19a197.19,197.19,0,0,0,8-31.1c.91-5.17-5.9-11.06-10-5.84a189.26,189.26,0,0,0-24.57,40.16l11.18,3q1.2-30.17-.3-60.33c-.32-6.49-10.21-8.49-11.79-1.6a159.32,159.32,0,0,0-2.21,59.19c.93,6.35,9.86,5,11.57,0A264.85,264.85,0,0,1,608.93,879l-9.42,1.21a20.48,20.48,0,0,1,7.25,14.6c.33,6.6,9.94,8.34,11.78,1.6l9.79-35.84-11.57-3.19L609,894.53l11-1.43c-2-4.25-.6-9.11-3.35-13.33-3-4.67-8.56-4.75-10.6-10.3-4.39-12-4.5-25.82-5.73-38.36l-4.12-42c-.15-1.49,0-3.49-.48-4.89l-.19-2c-1.28.81-1.08.8.61,0,2.67-.9,5.27-2.23,7.85-3.37q8.78-3.9,17.3-8.33a318.49,318.49,0,0,0,31.5-18.76q8-5.4,15.56-11.26c2.26-1.73,4.49-3.47,6.7-5.26,1.77-1.43,5.51-5.84,7.83-5.35,4.62,1,1.87,12,1.45,14.88l-3.12,21.39c-2,13.85-3.93,27.72-6.09,41.55a200.58,200.58,0,0,1-4.54,22.4c-1.74,6.34-3.64,12.85-8.83,17.25-8.5,7.21-20,9.52-27.14,18.58-3.89,4.92,1,13.44,7.27,9.43a422.28,422.28,0,0,0,57.23-44.19c5.69-5.24-2.81-13.7-8.49-8.48Z"/></g></svg>