<svg id="_1" data-name="1" xmlns="http://www.w3.org/2000/svg" viewBox="0 0 834.2 139.7"><defs><style>.cls-1{fill:#1d1d1b;}.cls-2{fill:none;stroke:#000;stroke-miterlimit:10;stroke-width:4px;}</style></defs><path class="cls-1" d="M201.84,555.08q-17.76,14.77-50.49,14.77t-50.59-14.77Q82.89,540.32,82.9,512.17v-82H127v81.42q0,11.58,6.19,18.46t18,6.89q11.78,0,18.06-7t6.29-18.36V430.15h44.1v82Q219.6,540.31,201.84,555.08Z" transform="translate(-82.9 -430.15)"/><path class="cls-1" d="M336.55,569.85,277.87,502v67.82H236.65V430.15h39.19L334.52,499V430.15h41.22v139.7Z" transform="translate(-82.9 -430.15)"/><path class="cls-1" d="M438.76,569.85l-49.55-139.7h47.92l28,93.4H466l28.22-93.4h45.89l-49.34,139.7Z" transform="translate(-82.9 -430.15)"/><path class="cls-1" d="M663.26,448q19,17.85,19,52t-19,52q-19,17.87-54,17.86t-53.86-17.76Q536.51,534.35,536.51,500t18.93-52.09q18.94-17.76,53.86-17.76T663.26,448ZM588.11,471q-7.26,8.44-7.26,22.76v12.56q0,14.33,7.26,22.76t21.19,8.43q13.94,0,21.29-8.43T638,506.28V493.72q0-14.33-7.36-22.76t-21.29-8.43Q595.37,462.53,588.11,471Z" transform="translate(-82.9 -430.15)"/><path class="cls-1" d="M698,569.85V430.15H742.9v139.7Z" transform="translate(-82.9 -430.15)"/><path class="cls-1" d="M849.38,465.89v104H804.51v-104H758.62V430.15H895.07v35.74Z" transform="translate(-82.9 -430.15)"/><circle class="cls-2" cx="812.17" cy="117.66" r="20.03"/><circle cx="812.17" cy="117.66" r="14.24"/></svg>