<svg
  width="53"
  height="67"
  viewBox="0 0 53 67"
  fill="none"
  xmlns="http://www.w3.org/2000/svg"
>
<path
    d="M44.0677 19.1405H28.5844V42.0747L36.4288 34.1972C36.8792 33.7674 37.4788 33.5314 38.1 33.5394C38.7211 33.5474 39.3146 33.7987 39.7538 34.2399C40.1931 34.6811 40.4434 35.2772 40.4513 35.9011C40.4593 36.525 40.2243 37.1273 39.7964 37.5797L27.8862 49.5425C27.4395 49.9908 26.8339 50.2427 26.2024 50.2427C25.5709 50.2427 24.9653 49.9908 24.5186 49.5425L12.6084 37.5797C12.1806 37.1273 11.9456 36.525 11.9535 35.9011C11.9615 35.2772 12.2117 34.6811 12.651 34.2399C13.0902 33.7987 13.6837 33.5474 14.3049 33.5394C14.926 33.5314 15.5257 33.7674 15.976 34.1972L23.8204 42.0747V19.1405H8.33713C6.12671 19.1429 4.0075 20.0259 2.4445 21.5958C0.881498 23.1657 0.00236451 25.2943 0 27.5145V58.6178C0.00236451 60.8379 0.881498 62.9665 2.4445 64.5364C4.0075 66.1063 6.12671 66.9893 8.33713 66.9917H44.0677C46.2781 66.9893 48.3973 66.1063 49.9603 64.5364C51.5233 62.9665 52.4025 60.8379 52.4048 58.6178V27.5145C52.4025 25.2943 51.5233 23.1657 49.9603 21.5958C48.3973 20.0259 46.2781 19.1429 44.0677 19.1405ZM28.5844 2.39256C28.5844 1.75801 28.3335 1.14946 27.8868 0.700765C27.4401 0.252073 26.8342 0 26.2024 0C25.5707 0 24.9648 0.252073 24.5181 0.700765C24.0713 1.14946 23.8204 1.75801 23.8204 2.39256V19.1405H28.5844V2.39256Z"
    fill="#C4C4C4"
  />
</svg>
